# Blender 4.4.3
# www.blender.org
mtllib planet.mtl
o Icosphere
v -0.254638 -3.207488 -0.098464
v 2.326932 -1.407123 1.775016
v -0.721091 -1.151253 2.172131
v -2.193583 -1.097536 -0.000227
v -0.696945 -1.137534 -2.144359
v 1.808355 -1.172480 -1.342473
v 0.793291 1.250283 2.443935
v -2.196981 1.289613 1.585944
v -2.222743 1.366676 -1.636050
v 0.913332 1.428306 -2.815643
v 2.438645 1.201183 -0.011961
v 0.029402 3.403969 -0.001108
v -0.606767 -2.436082 1.463527
v 1.121261 -2.439049 0.834864
v 0.717186 -1.529716 2.425090
v 2.645785 -1.630177 -0.057520
v 1.371690 -2.936781 -1.250300
v -1.313444 -2.102031 -0.003598
v -1.671049 -1.276583 1.214084
v -0.456608 -2.196644 -1.320722
v -1.671049 -1.276583 -1.214084
v 0.690303 -1.419190 -2.214469
v 2.747604 -0.017872 0.880556
v 2.515024 0.003889 -0.823677
v -0.002510 -0.013209 2.748557
v 1.468827 -0.002404 2.027419
v -2.508593 -0.015523 0.807938
v -1.515221 -0.013269 2.078364
v -1.406887 0.083040 -2.003076
v -2.529294 -0.010620 -0.824273
v 1.694740 -0.024762 -2.367516
v 0.002986 -0.032192 -2.799060
v 1.950203 1.492941 1.442448
v -0.872564 1.665383 2.706875
v -2.495368 1.523264 -0.010689
v -0.854267 1.779550 -2.826063
v 2.139041 1.596511 -1.564189
v 0.547930 2.769062 1.657317
v 1.780887 2.801537 0.001906
v -1.388919 2.774119 1.012793
v -1.332927 2.741493 -1.019132
v 0.438482 2.337713 -1.413958
vn 0.1683 -0.8682 0.4667
vn 0.5461 -0.8149 0.1942
vn -0.7023 -0.6883 0.1816
vn -0.6794 -0.6166 -0.3977
vn -0.2857 -0.7611 -0.5823
vn 0.9669 -0.1711 0.1891
vn -0.2435 -0.3115 0.9185
vn -0.8373 -0.4620 0.2922
vn -0.6392 -0.2893 -0.7126
vn 0.5985 -0.4999 -0.6260
vn 0.6455 0.2656 0.7161
vn -0.3966 -0.2030 0.8953
vn -0.9578 -0.2873 0.0113
vn -0.4944 -0.1894 -0.8483
vn 0.8417 -0.3109 -0.4414
vn 0.5256 0.4567 0.7178
vn -0.6241 0.5529 0.5521
vn -0.7837 0.5918 -0.1885
vn 0.1722 0.8520 -0.4944
vn 0.9216 0.3795 -0.0812
vn 0.2774 0.8038 -0.5263
vn 0.2961 0.7885 -0.5390
vn 0.3276 0.8394 -0.4337
vn 0.0514 0.8042 -0.5921
vn 0.1033 0.8891 -0.4460
vn -0.6138 0.6178 -0.4915
vn -0.4213 0.9066 -0.0262
vn -0.7359 0.6764 -0.0311
vn -0.8147 0.5323 0.2301
vn -0.1271 0.9124 0.3890
vn -0.1901 0.7939 0.5775
vn 0.2517 0.4768 0.8422
vn 0.3144 0.9152 0.2521
vn 0.6293 0.6106 0.4807
vn 0.9011 0.3684 0.2287
vn 0.9758 0.1620 -0.1471
vn 0.8831 -0.0096 -0.4690
vn 0.6949 0.1573 -0.7017
vn 0.0032 -0.0134 -0.9999
vn -0.4918 -0.2451 -0.8355
vn -0.6163 -0.1720 -0.7685
vn -0.9779 0.1145 -0.1751
vn -0.9998 0.0154 0.0127
vn -0.9734 0.1140 0.1986
vn -0.6382 -0.0435 0.7686
vn -0.3981 -0.1841 0.8987
vn 0.1838 0.1195 0.9757
vn 0.6406 0.0920 0.7623
vn 0.6663 0.0757 0.7419
vn 0.8940 0.3892 0.2221
vn 0.2445 -0.1633 -0.9558
vn 0.2388 -0.2743 -0.9315
vn -0.1343 -0.4407 -0.8876
vn -0.6922 -0.2459 -0.6786
vn -0.6892 -0.2588 -0.6768
vn -0.8315 -0.4751 -0.2879
vn -0.7753 -0.1764 0.6065
vn -0.7490 -0.3087 0.5862
vn -0.6300 -0.3840 0.6750
vn 0.4396 -0.0609 0.8961
vn 0.4399 0.0173 0.8979
vn 0.3699 0.0594 0.9272
vn 0.9796 0.1518 -0.1317
vn 0.9907 0.0160 -0.1350
vn 0.7825 -0.2119 -0.5855
vn 0.6296 -0.1951 -0.7520
vn -0.2086 -0.5895 -0.7804
vn -0.1660 -0.6286 -0.7598
vn -0.5074 -0.5978 -0.6206
vn -0.5883 -0.7384 -0.3297
vn -0.7339 -0.6423 -0.2212
vn -0.7332 -0.6432 0.2207
vn -0.7422 -0.6355 0.2128
vn -0.6156 -0.4219 0.6656
vn 0.7783 -0.2233 -0.5868
vn 0.5655 -0.7843 0.2551
vn 0.3328 -0.9074 0.2566
vn -0.2734 -0.4831 0.8318
vn 0.1889 -0.8310 0.5232
vn 0.2748 -0.8029 0.5290
vt 0.181819 0.000000
vt 0.227273 0.078731
vt 0.136365 0.078731
vt 0.272728 0.157461
vt 0.318182 0.078731
vt 0.363637 0.157461
vt 0.909091 0.000000
vt 0.954545 0.078731
vt 0.863636 0.078731
vt 0.727273 0.000000
vt 0.772727 0.078731
vt 0.681818 0.078731
vt 0.545455 0.000000
vt 0.590909 0.078731
vt 0.500000 0.078731
vt 0.318182 0.236191
vt 0.090910 0.157461
vt 0.181819 0.157461
vt 0.136365 0.236191
vt 0.818182 0.157461
vt 0.909091 0.157461
vt 0.863636 0.236191
vt 0.636364 0.157461
vt 0.727273 0.157461
vt 0.681818 0.236191
vt 0.454546 0.157461
vt 0.545455 0.157461
vt 0.500000 0.236191
vt 0.227273 0.236191
vt 0.045455 0.236191
vt 0.772727 0.236191
vt 0.590909 0.236191
vt 0.409092 0.236191
vt 0.181819 0.314921
vt 0.272728 0.314921
vt 0.227273 0.393651
vt 0.000000 0.314921
vt 0.090910 0.314921
vt 0.045455 0.393651
vt 0.727273 0.314921
vt 0.818182 0.314921
vt 0.772727 0.393651
vt 0.545455 0.314921
vt 0.636364 0.314921
vt 0.590909 0.393651
vt 0.363637 0.314921
vt 0.454546 0.314921
vt 0.409092 0.393651
vt 0.500000 0.393651
vt 0.454546 0.472382
vt 0.681818 0.393651
vt 0.636364 0.472382
vt 0.863636 0.393651
vt 0.818182 0.472382
vt 0.909091 0.314921
vt 0.136365 0.393651
vt 0.090910 0.472382
vt 0.318182 0.393651
vt 0.272728 0.472382
vt 0.954545 0.236191
vt 1.000000 0.157461
vt 0.409092 0.078731
vt 0.363637 0.000000
s 0
f 1/1/1 14/2/1 13/3/1
f 2/4/2 14/5/2 16/6/2
f 1/7/3 13/8/3 18/9/3
f 1/10/4 18/11/4 20/12/4
f 1/13/5 20/14/5 17/15/5
f 2/4/6 16/6/6 23/16/6
f 3/17/7 15/18/7 25/19/7
f 4/20/8 19/21/8 27/22/8
f 5/23/9 21/24/9 29/25/9
f 6/26/10 22/27/10 31/28/10
f 2/4/11 23/16/11 26/29/11
f 3/17/12 25/19/12 28/30/12
f 4/20/13 27/22/13 30/31/13
f 5/23/14 29/25/14 32/32/14
f 6/26/15 31/28/15 24/33/15
f 7/34/16 33/35/16 38/36/16
f 8/37/17 34/38/17 40/39/17
f 9/40/18 35/41/18 41/42/18
f 10/43/19 36/44/19 42/45/19
f 11/46/20 37/47/20 39/48/20
f 39/48/21 42/49/21 12/50/21
f 39/48/22 37/47/22 42/49/22
f 37/47/23 10/43/23 42/49/23
f 42/45/24 41/51/24 12/52/24
f 42/45/25 36/44/25 41/51/25
f 36/44/26 9/40/26 41/51/26
f 41/42/27 40/53/27 12/54/27
f 41/42/28 35/41/28 40/53/28
f 35/41/29 8/55/29 40/53/29
f 40/39/30 38/56/30 12/57/30
f 40/39/31 34/38/31 38/56/31
f 34/38/32 7/34/32 38/56/32
f 38/36/33 39/58/33 12/59/33
f 38/36/34 33/35/34 39/58/34
f 33/35/35 11/46/35 39/58/35
f 24/33/36 37/47/36 11/46/36
f 24/33/37 31/28/37 37/47/37
f 31/28/38 10/43/38 37/47/38
f 32/32/39 36/44/39 10/43/39
f 32/32/40 29/25/40 36/44/40
f 29/25/41 9/40/41 36/44/41
f 30/31/42 35/41/42 9/40/42
f 30/31/43 27/22/43 35/41/43
f 27/22/44 8/55/44 35/41/44
f 28/30/45 34/38/45 8/37/45
f 28/30/46 25/19/46 34/38/46
f 25/19/47 7/34/47 34/38/47
f 26/29/48 33/35/48 7/34/48
f 26/29/49 23/16/49 33/35/49
f 23/16/50 11/46/50 33/35/50
f 31/28/51 32/32/51 10/43/51
f 31/28/52 22/27/52 32/32/52
f 22/27/53 5/23/53 32/32/53
f 29/25/54 30/31/54 9/40/54
f 29/25/55 21/24/55 30/31/55
f 21/24/56 4/20/56 30/31/56
f 27/22/57 28/60/57 8/55/57
f 27/22/58 19/21/58 28/60/58
f 19/21/59 3/61/59 28/60/59
f 25/19/60 26/29/60 7/34/60
f 25/19/61 15/18/61 26/29/61
f 15/18/62 2/4/62 26/29/62
f 23/16/63 24/33/63 11/46/63
f 23/16/64 16/6/64 24/33/64
f 16/6/65 6/26/65 24/33/65
f 17/15/66 22/27/66 6/26/66
f 17/15/67 20/14/67 22/27/67
f 20/14/68 5/23/68 22/27/68
f 20/12/69 21/24/69 5/23/69
f 20/12/70 18/11/70 21/24/70
f 18/11/71 4/20/71 21/24/71
f 18/9/72 19/21/72 4/20/72
f 18/9/73 13/8/73 19/21/73
f 13/8/74 3/61/74 19/21/74
f 16/6/75 17/62/75 6/26/75
f 16/6/76 14/5/76 17/62/76
f 14/5/77 1/63/77 17/62/77
f 13/3/78 15/18/78 3/17/78
f 13/3/79 14/2/79 15/18/79
f 14/2/80 2/4/80 15/18/80
o Torus
v 8.771667 -0.066288 0.000000
v 8.536631 0.013721 0.000000
v 7.894500 0.072292 0.000000
v 7.017334 0.093731 0.000000
v 6.140167 0.072292 0.000000
v 5.498036 0.013721 0.000000
v 5.263000 -0.066288 0.000000
v 5.498036 -0.146297 0.000000
v 6.140167 -0.204868 0.000000
v 7.017334 -0.226307 0.000000
v 7.894500 -0.204868 0.000000
v 8.536631 -0.146297 0.000000
v 8.696624 -0.066288 -1.144932
v 8.463599 0.013721 -1.114254
v 7.826962 0.072292 -1.030439
v 6.957299 0.093731 -0.915946
v 6.087637 0.072292 -0.801452
v 5.451000 0.013721 -0.717638
v 5.217975 -0.066288 -0.686959
v 5.451000 -0.146297 -0.717638
v 6.087637 -0.204868 -0.801452
v 6.957299 -0.226307 -0.915946
v 7.826962 -0.204868 -1.030439
v 8.463599 -0.146297 -1.114254
v 8.472779 -0.066288 -2.270274
v 8.245752 0.013721 -2.209442
v 7.625502 0.072292 -2.043247
v 6.778224 0.093731 -1.816219
v 5.930946 0.072292 -1.589192
v 5.310695 0.013721 -1.422996
v 5.083668 -0.066288 -1.362164
v 5.310695 -0.146297 -1.422996
v 5.930946 -0.204868 -1.589192
v 6.778224 -0.226307 -1.816219
v 7.625502 -0.204868 -2.043247
v 8.245752 -0.146297 -2.209442
v 8.103964 -0.066288 -3.356771
v 7.886819 0.013721 -3.266827
v 7.293567 0.072292 -3.021094
v 6.483171 0.093731 -2.685417
v 5.672775 0.072292 -2.349740
v 5.079523 0.013721 -2.104007
v 4.862378 -0.066288 -2.014063
v 5.079523 -0.146297 -2.104007
v 5.672775 -0.204868 -2.349740
v 6.483171 -0.226307 -2.685417
v 7.293567 -0.204868 -3.021094
v 7.886819 -0.146297 -3.266827
v 7.596486 -0.066288 -4.385834
v 7.392939 0.013721 -4.268316
v 6.836837 0.072292 -3.947251
v 6.077188 0.093731 -3.508668
v 5.317540 0.072292 -3.070084
v 4.761438 0.013721 -2.749019
v 4.557891 -0.066288 -2.631501
v 4.761438 -0.146297 -2.749019
v 5.317540 -0.204868 -3.070084
v 6.077188 -0.226307 -3.508668
v 6.836837 -0.204868 -3.947251
v 7.392939 -0.146297 -4.268316
v 6.959032 -0.066288 -5.339851
v 6.772565 0.013721 -5.196771
v 6.263129 0.072292 -4.805866
v 5.567225 0.093731 -4.271881
v 4.871322 0.072292 -3.737896
v 4.361886 0.013721 -3.346992
v 4.175419 -0.066288 -3.203911
v 4.361886 -0.146297 -3.346992
v 4.871322 -0.204868 -3.737896
v 5.567225 -0.226307 -4.271881
v 6.263129 -0.204868 -4.805866
v 6.772565 -0.146297 -5.196771
v 6.202504 -0.066288 -6.202506
v 6.036309 0.013721 -6.036310
v 5.582254 0.072292 -5.582255
v 4.962004 0.093731 -4.962005
v 4.341753 0.072292 -4.341754
v 3.887698 0.013721 -3.887699
v 3.721503 -0.066288 -3.721503
v 3.887698 -0.146297 -3.887699
v 4.341753 -0.204868 -4.341754
v 4.962004 -0.226307 -4.962005
v 5.582254 -0.204868 -5.582255
v 6.036309 -0.146297 -6.036310
v 5.339853 -0.066288 -6.959030
v 5.196773 0.013721 -6.772563
v 4.805868 0.072292 -6.263127
v 4.271883 0.093731 -5.567224
v 3.737897 0.072292 -4.871321
v 3.346993 0.013721 -4.361885
v 3.203912 -0.066288 -4.175418
v 3.346993 -0.146297 -4.361885
v 3.737897 -0.204868 -4.871321
v 4.271883 -0.226307 -5.567224
v 4.805868 -0.204868 -6.263127
v 5.196773 -0.146297 -6.772563
v 4.385833 -0.066288 -7.596487
v 4.268315 0.013721 -7.392940
v 3.947250 0.072292 -6.836838
v 3.508667 0.093731 -6.077189
v 3.070083 0.072292 -5.317541
v 2.749018 0.013721 -4.761439
v 2.631500 -0.066288 -4.557892
v 2.749018 -0.146297 -4.761439
v 3.070083 -0.204868 -5.317541
v 3.508667 -0.226307 -6.077189
v 3.947250 -0.204868 -6.836838
v 4.268315 -0.146297 -7.392940
v 3.356774 -0.066288 -8.103963
v 3.266829 0.013721 -7.886817
v 3.021096 0.072292 -7.293566
v 2.685419 0.093731 -6.483170
v 2.349741 0.072292 -5.672774
v 2.104009 0.013721 -5.079523
v 2.014064 -0.066288 -4.862378
v 2.104009 -0.146297 -5.079523
v 2.349741 -0.204868 -5.672774
v 2.685419 -0.226307 -6.483170
v 3.021096 -0.204868 -7.293566
v 3.266829 -0.146297 -7.886817
v 2.270275 -0.066288 -8.472779
v 2.209443 0.013721 -8.245752
v 2.043247 0.072292 -7.625502
v 1.816220 0.093731 -6.778224
v 1.589192 0.072292 -5.930946
v 1.422997 0.013721 -5.310695
v 1.362165 -0.066288 -5.083668
v 1.422997 -0.146297 -5.310695
v 1.589192 -0.204868 -5.930946
v 1.816220 -0.226307 -6.778224
v 2.043247 -0.204868 -7.625502
v 2.209443 -0.146297 -8.245752
v 1.144931 -0.066288 -8.696624
v 1.114252 0.013721 -8.463599
v 1.030438 0.072292 -7.826962
v 0.915945 0.093731 -6.957299
v 0.801451 0.072292 -6.087637
v 0.717637 0.013721 -5.451000
v 0.686958 -0.066288 -5.217975
v 0.717637 -0.146297 -5.451000
v 0.801451 -0.204868 -6.087637
v 0.915945 -0.226307 -6.957299
v 1.030438 -0.204868 -7.826962
v 1.114252 -0.146297 -8.463599
v 0.000001 -0.066288 -8.771667
v 0.000001 0.013721 -8.536631
v 0.000001 0.072292 -7.894500
v 0.000001 0.093731 -7.017334
v 0.000000 0.072292 -6.140167
v 0.000000 0.013721 -5.498036
v 0.000000 -0.066288 -5.263000
v 0.000000 -0.146297 -5.498036
v 0.000000 -0.204868 -6.140167
v 0.000001 -0.226307 -7.017334
v 0.000001 -0.204868 -7.894500
v 0.000001 -0.146297 -8.536631
v -1.144933 -0.066288 -8.696624
v -1.114255 0.013721 -8.463598
v -1.030440 0.072292 -7.826961
v -0.915947 0.093731 -6.957299
v -0.801453 0.072292 -6.087637
v -0.717638 0.013721 -5.451000
v -0.686960 -0.066288 -5.217974
v -0.717638 -0.146297 -5.451000
v -0.801453 -0.204868 -6.087637
v -0.915947 -0.226307 -6.957299
v -1.030440 -0.204868 -7.826961
v -1.114255 -0.146297 -8.463598
v -2.270273 -0.066288 -8.472780
v -2.209442 0.013721 -8.245753
v -2.043246 0.072292 -7.625502
v -1.816219 0.093731 -6.778224
v -1.589191 0.072292 -5.930946
v -1.422996 0.013721 -5.310695
v -1.362164 -0.066288 -5.083668
v -1.422996 -0.146297 -5.310695
v -1.589191 -0.204868 -5.930946
v -1.816219 -0.226307 -6.778224
v -2.043246 -0.204868 -7.625502
v -2.209442 -0.146297 -8.245753
v -3.356772 -0.066288 -8.103964
v -3.266828 0.013721 -7.886818
v -3.021095 0.072292 -7.293567
v -2.685418 0.093731 -6.483171
v -2.349741 0.072292 -5.672774
v -2.104008 0.013721 -5.079523
v -2.014063 -0.066288 -4.862378
v -2.104008 -0.146297 -5.079523
v -2.349741 -0.204868 -5.672774
v -2.685418 -0.226307 -6.483171
v -3.021095 -0.204868 -7.293567
v -3.266828 -0.146297 -7.886818
v -4.385832 -0.066288 -7.596488
v -4.268314 0.013721 -7.392940
v -3.947249 0.072292 -6.836839
v -3.508666 0.093731 -6.077190
v -3.070083 0.072292 -5.317541
v -2.749017 0.013721 -4.761439
v -2.631499 -0.066288 -4.557892
v -2.749017 -0.146297 -4.761439
v -3.070083 -0.204868 -5.317541
v -3.508666 -0.226307 -6.077190
v -3.947249 -0.204868 -6.836839
v -4.268314 -0.146297 -7.392940
v -5.339852 -0.066288 -6.959031
v -5.196772 0.013721 -6.772564
v -4.805867 0.072292 -6.263128
v -4.271882 0.093731 -5.567225
v -3.737897 0.072292 -4.871322
v -3.346992 0.013721 -4.361885
v -3.203912 -0.066288 -4.175419
v -3.346992 -0.146297 -4.361885
v -3.737897 -0.204868 -4.871322
v -4.271882 -0.226307 -5.567225
v -4.805867 -0.204868 -6.263128
v -5.196772 -0.146297 -6.772564
v -6.202507 -0.066288 -6.202504
v -6.036311 0.013721 -6.036308
v -5.582256 0.072292 -5.582253
v -4.962005 0.093731 -4.962003
v -4.341754 0.072292 -4.341753
v -3.887700 0.013721 -3.887697
v -3.721504 -0.066288 -3.721502
v -3.887700 -0.146297 -3.887697
v -4.341754 -0.204868 -4.341753
v -4.962005 -0.226307 -4.962003
v -5.582256 -0.204868 -5.582253
v -6.036311 -0.146297 -6.036308
v -6.959031 -0.066288 -5.339852
v -6.772564 0.013721 -5.196772
v -6.263128 0.072292 -4.805867
v -5.567225 0.093731 -4.271882
v -4.871322 0.072292 -3.737897
v -4.361885 0.013721 -3.346992
v -4.175419 -0.066288 -3.203912
v -4.361885 -0.146297 -3.346992
v -4.871322 -0.204868 -3.737897
v -5.567225 -0.226307 -4.271882
v -6.263128 -0.204868 -4.805867
v -6.772564 -0.146297 -5.196772
v -7.596485 -0.066288 -4.385836
v -7.392938 0.013721 -4.268318
v -6.836837 0.072292 -3.947252
v -6.077188 0.093731 -3.508668
v -5.317540 0.072292 -3.070085
v -4.761438 0.013721 -2.749019
v -4.557891 -0.066288 -2.631501
v -4.761438 -0.146297 -2.749019
v -5.317540 -0.204868 -3.070085
v -6.077188 -0.226307 -3.508668
v -6.836837 -0.204868 -3.947252
v -7.392938 -0.146297 -4.268318
v -8.103964 -0.066288 -3.356772
v -7.886818 0.013721 -3.266828
v -7.293567 0.072292 -3.021095
v -6.483171 0.093731 -2.685418
v -5.672774 0.072292 -2.349741
v -5.079523 0.013721 -2.104008
v -4.862378 -0.066288 -2.014063
v -5.079523 -0.146297 -2.104008
v -5.672774 -0.204868 -2.349741
v -6.483171 -0.226307 -2.685418
v -7.293567 -0.204868 -3.021095
v -7.886818 -0.146297 -3.266828
v -8.472780 -0.066288 -2.270273
v -8.245753 0.013721 -2.209442
v -7.625502 0.072292 -2.043246
v -6.778224 0.093731 -1.816219
v -5.930946 0.072292 -1.589191
v -5.310695 0.013721 -1.422996
v -5.083668 -0.066288 -1.362164
v -5.310695 -0.146297 -1.422996
v -5.930946 -0.204868 -1.589191
v -6.778224 -0.226307 -1.816219
v -7.625502 -0.204868 -2.043246
v -8.245753 -0.146297 -2.209442
v -8.696624 -0.066288 -1.144933
v -8.463598 0.013721 -1.114255
v -7.826961 0.072292 -1.030440
v -6.957299 0.093731 -0.915947
v -6.087637 0.072292 -0.801453
v -5.451000 0.013721 -0.717638
v -5.217974 -0.066288 -0.686960
v -5.451000 -0.146297 -0.717638
v -6.087637 -0.204868 -0.801453
v -6.957299 -0.226307 -0.915947
v -7.826961 -0.204868 -1.030440
v -8.463598 -0.146297 -1.114255
v -8.771667 -0.066288 -0.000001
v -8.536631 0.013721 -0.000001
v -7.894500 0.072292 -0.000001
v -7.017334 0.093731 -0.000001
v -6.140167 0.072292 -0.000001
v -5.498036 0.013721 -0.000000
v -5.263000 -0.066288 -0.000000
v -5.498036 -0.146297 -0.000000
v -6.140167 -0.204868 -0.000001
v -7.017334 -0.226307 -0.000001
v -7.894500 -0.204868 -0.000001
v -8.536631 -0.146297 -0.000001
v -8.696624 -0.066288 1.144933
v -8.463598 0.013721 1.114255
v -7.826961 0.072292 1.030440
v -6.957299 0.093731 0.915947
v -6.087637 0.072292 0.801453
v -5.451000 0.013721 0.717638
v -5.217974 -0.066288 0.686960
v -5.451000 -0.146297 0.717638
v -6.087637 -0.204868 0.801453
v -6.957299 -0.226307 0.915947
v -7.826961 -0.204868 1.030440
v -8.463598 -0.146297 1.114255
v -8.472780 -0.066288 2.270273
v -8.245753 0.013721 2.209442
v -7.625502 0.072292 2.043246
v -6.778224 0.093731 1.816219
v -5.930946 0.072292 1.589191
v -5.310695 0.013721 1.422996
v -5.083668 -0.066288 1.362164
v -5.310695 -0.146297 1.422996
v -5.930946 -0.204868 1.589191
v -6.778224 -0.226307 1.816219
v -7.625502 -0.204868 2.043246
v -8.245753 -0.146297 2.209442
v -8.103965 -0.066288 3.356768
v -7.886820 0.013721 3.266824
v -7.293569 0.072292 3.021091
v -6.483172 0.093731 2.685415
v -5.672775 0.072292 2.349738
v -5.079524 0.013721 2.104005
v -4.862379 -0.066288 2.014061
v -5.079524 -0.146297 2.104005
v -5.672775 -0.204868 2.349738
v -6.483172 -0.226307 2.685415
v -7.293569 -0.204868 3.021091
v -7.886820 -0.146297 3.266824
v -7.596488 -0.066288 4.385832
v -7.392940 0.013721 4.268314
v -6.836839 0.072292 3.947249
v -6.077190 0.093731 3.508666
v -5.317541 0.072292 3.070082
v -4.761439 0.013721 2.749017
v -4.557892 -0.066288 2.631499
v -4.761439 -0.146297 2.749017
v -5.317541 -0.204868 3.070082
v -6.077190 -0.226307 3.508666
v -6.836839 -0.204868 3.947249
v -7.392940 -0.146297 4.268314
v -6.959031 -0.066288 5.339852
v -6.772564 0.013721 5.196772
v -6.263128 0.072292 4.805867
v -5.567225 0.093731 4.271882
v -4.871322 0.072292 3.737897
v -4.361885 0.013721 3.346992
v -4.175419 -0.066288 3.203912
v -4.361885 -0.146297 3.346992
v -4.871322 -0.204868 3.737897
v -5.567225 -0.226307 4.271882
v -6.263128 -0.204868 4.805867
v -6.772564 -0.146297 5.196772
v -6.202507 -0.066288 6.202504
v -6.036311 0.013721 6.036308
v -5.582256 0.072292 5.582253
v -4.962005 0.093731 4.962003
v -4.341754 0.072292 4.341753
v -3.887700 0.013721 3.887697
v -3.721504 -0.066288 3.721502
v -3.887700 -0.146297 3.887697
v -4.341754 -0.204868 4.341753
v -4.962005 -0.226307 4.962003
v -5.582256 -0.204868 5.582253
v -6.036311 -0.146297 6.036308
v -5.339856 -0.066288 6.959029
v -5.196775 0.013721 6.772562
v -4.805871 0.072292 6.263125
v -4.271885 0.093731 5.567223
v -3.737899 0.072292 4.871320
v -3.346995 0.013721 4.361884
v -3.203914 -0.066288 4.175417
v -3.346995 -0.146297 4.361884
v -3.737899 -0.204868 4.871320
v -4.271885 -0.226307 5.567223
v -4.805871 -0.204868 6.263125
v -5.196775 -0.146297 6.772562
v -4.385832 -0.066288 7.596488
v -4.268314 0.013721 7.392940
v -3.947249 0.072292 6.836839
v -3.508666 0.093731 6.077190
v -3.070083 0.072292 5.317541
v -2.749017 0.013721 4.761439
v -2.631499 -0.066288 4.557892
v -2.749017 -0.146297 4.761439
v -3.070083 -0.204868 5.317541
v -3.508666 -0.226307 6.077190
v -3.947249 -0.204868 6.836839
v -4.268314 -0.146297 7.392940
v -3.356772 -0.066288 8.103964
v -3.266828 0.013721 7.886818
v -3.021095 0.072292 7.293567
v -2.685418 0.093731 6.483171
v -2.349741 0.072292 5.672774
v -2.104008 0.013721 5.079523
v -2.014063 -0.066288 4.862378
v -2.104008 -0.146297 5.079523
v -2.349741 -0.204868 5.672774
v -2.685418 -0.226307 6.483171
v -3.021095 -0.204868 7.293567
v -3.266828 -0.146297 7.886818
v -2.270277 -0.066288 8.472779
v -2.209445 0.013721 8.245751
v -2.043250 0.072292 7.625501
v -1.816222 0.093731 6.778223
v -1.589194 0.072292 5.930945
v -1.422998 0.013721 5.310695
v -1.362166 -0.066288 5.083667
v -1.422998 -0.146297 5.310695
v -1.589194 -0.204868 5.930945
v -1.816222 -0.226307 6.778223
v -2.043250 -0.204868 7.625501
v -2.209445 -0.146297 8.245751
v -1.144938 -0.066288 8.696624
v -1.114259 0.013721 8.463598
v -1.030444 0.072292 7.826961
v -0.915950 0.093731 6.957299
v -0.801456 0.072292 6.087636
v -0.717641 0.013721 5.450999
v -0.686963 -0.066288 5.217974
v -0.717641 -0.146297 5.450999
v -0.801456 -0.204868 6.087636
v -0.915950 -0.226307 6.957299
v -1.030444 -0.204868 7.826961
v -1.114259 -0.146297 8.463598
v 0.000001 -0.066288 8.771667
v 0.000001 0.013721 8.536631
v 0.000001 0.072292 7.894500
v 0.000001 0.093731 7.017334
v 0.000000 0.072292 6.140167
v 0.000000 0.013721 5.498036
v 0.000000 -0.066288 5.263000
v 0.000000 -0.146297 5.498036
v 0.000000 -0.204868 6.140167
v 0.000001 -0.226307 7.017334
v 0.000001 -0.204868 7.894500
v 0.000001 -0.146297 8.536631
v 1.144931 -0.066288 8.696624
v 1.114252 0.013721 8.463599
v 1.030438 0.072292 7.826962
v 0.915945 0.093731 6.957299
v 0.801451 0.072292 6.087637
v 0.717637 0.013721 5.451000
v 0.686958 -0.066288 5.217975
v 0.717637 -0.146297 5.451000
v 0.801451 -0.204868 6.087637
v 0.915945 -0.226307 6.957299
v 1.030438 -0.204868 7.826962
v 1.114252 -0.146297 8.463599
v 2.270271 -0.066288 8.472781
v 2.209439 0.013721 8.245753
v 2.043243 0.072292 7.625503
v 1.816216 0.093731 6.778224
v 1.589189 0.072292 5.930946
v 1.422994 0.013721 5.310696
v 1.362162 -0.066288 5.083668
v 1.422994 -0.146297 5.310696
v 1.589189 -0.204868 5.930946
v 1.816216 -0.226307 6.778224
v 2.043243 -0.204868 7.625503
v 2.209439 -0.146297 8.245753
v 3.356774 -0.066288 8.103963
v 3.266829 0.013721 7.886817
v 3.021096 0.072292 7.293566
v 2.685419 0.093731 6.483170
v 2.349741 0.072292 5.672774
v 2.104009 0.013721 5.079523
v 2.014064 -0.066288 4.862378
v 2.104009 -0.146297 5.079523
v 2.349741 -0.204868 5.672774
v 2.685419 -0.226307 6.483170
v 3.021096 -0.204868 7.293566
v 3.266829 -0.146297 7.886817
v 4.385833 -0.066288 7.596487
v 4.268315 0.013721 7.392940
v 3.947250 0.072292 6.836838
v 3.508667 0.093731 6.077189
v 3.070083 0.072292 5.317541
v 2.749018 0.013721 4.761439
v 2.631500 -0.066288 4.557892
v 2.749018 -0.146297 4.761439
v 3.070083 -0.204868 5.317541
v 3.508667 -0.226307 6.077189
v 3.947250 -0.204868 6.836838
v 4.268315 -0.146297 7.392940
v 5.339850 -0.066288 6.959033
v 5.196769 0.013721 6.772566
v 4.805865 0.072292 6.263129
v 4.271880 0.093731 5.567226
v 3.737895 0.072292 4.871323
v 3.346991 0.013721 4.361886
v 3.203910 -0.066288 4.175419
v 3.346991 -0.146297 4.361886
v 3.737895 -0.204868 4.871323
v 4.271880 -0.226307 5.567226
v 4.805865 -0.204868 6.263129
v 5.196769 -0.146297 6.772566
v 6.202502 -0.066288 6.202508
v 6.036306 0.013721 6.036313
v 5.582252 0.072292 5.582258
v 4.962001 0.093731 4.962007
v 4.341751 0.072292 4.341756
v 3.887697 0.013721 3.887701
v 3.721501 -0.066288 3.721505
v 3.887697 -0.146297 3.887701
v 4.341751 -0.204868 4.341756
v 4.962001 -0.226307 4.962007
v 5.582252 -0.204868 5.582258
v 6.036306 -0.146297 6.036313
v 6.959032 -0.066288 5.339851
v 6.772565 0.013721 5.196771
v 6.263129 0.072292 4.805866
v 5.567225 0.093731 4.271881
v 4.871322 0.072292 3.737896
v 4.361886 0.013721 3.346992
v 4.175419 -0.066288 3.203911
v 4.361886 -0.146297 3.346992
v 4.871322 -0.204868 3.737896
v 5.567225 -0.226307 4.271881
v 6.263129 -0.204868 4.805866
v 6.772565 -0.146297 5.196771
v 7.596486 -0.066288 4.385834
v 7.392939 0.013721 4.268316
v 6.836837 0.072292 3.947251
v 6.077188 0.093731 3.508668
v 5.317540 0.072292 3.070084
v 4.761438 0.013721 2.749019
v 4.557891 -0.066288 2.631501
v 4.761438 -0.146297 2.749019
v 5.317540 -0.204868 3.070084
v 6.077188 -0.226307 3.508668
v 6.836837 -0.204868 3.947251
v 7.392939 -0.146297 4.268316
v 8.103963 -0.066288 3.356775
v 7.886817 0.013721 3.266830
v 7.293566 0.072292 3.021097
v 6.483170 0.093731 2.685420
v 5.672773 0.072292 2.349742
v 5.079523 0.013721 2.104010
v 4.862377 -0.066288 2.014065
v 5.079523 -0.146297 2.104010
v 5.672773 -0.204868 2.349742
v 6.483170 -0.226307 2.685420
v 7.293566 -0.204868 3.021097
v 7.886817 -0.146297 3.266830
v 8.472780 -0.066288 2.270272
v 8.245753 0.013721 2.209440
v 7.625502 0.072292 2.043245
v 6.778224 0.093731 1.816218
v 5.930946 0.072292 1.589190
v 5.310695 0.013721 1.422995
v 5.083668 -0.066288 1.362163
v 5.310695 -0.146297 1.422995
v 5.930946 -0.204868 1.589190
v 6.778224 -0.226307 1.816218
v 7.625502 -0.204868 2.043245
v 8.245753 -0.146297 2.209440
v 8.696624 -0.066288 1.144932
v 8.463599 0.013721 1.114254
v 7.826962 0.072292 1.030439
v 6.957299 0.093731 0.915946
v 6.087637 0.072292 0.801452
v 5.451000 0.013721 0.717638
v 5.217975 -0.066288 0.686959
v 5.451000 -0.146297 0.717638
v 6.087637 -0.204868 0.801452
v 6.957299 -0.226307 0.915946
v 7.826962 -0.204868 1.030439
v 8.463599 -0.146297 1.114254
vn 0.3222 0.9464 -0.0211
vn 0.0908 0.9958 -0.0060
vn 0.0244 0.9997 -0.0016
vn -0.0244 0.9997 0.0016
vn -0.0908 0.9958 0.0060
vn -0.3222 0.9464 0.0211
vn -0.3222 -0.9464 0.0211
vn -0.0908 -0.9958 0.0060
vn -0.0244 -0.9997 0.0016
vn 0.0244 -0.9997 -0.0016
vn 0.0908 -0.9958 -0.0060
vn 0.3222 -0.9464 -0.0211
vn 0.3167 0.9464 -0.0630
vn 0.0893 0.9958 -0.0178
vn 0.0240 0.9997 -0.0048
vn -0.0240 0.9997 0.0048
vn -0.0893 0.9958 0.0178
vn -0.3167 0.9464 0.0630
vn -0.3167 -0.9464 0.0630
vn -0.0893 -0.9958 0.0178
vn -0.0240 -0.9997 0.0048
vn 0.0240 -0.9997 -0.0048
vn 0.0893 -0.9958 -0.0178
vn 0.3167 -0.9464 -0.0630
vn 0.3057 0.9464 -0.1038
vn 0.0862 0.9958 -0.0293
vn 0.0232 0.9997 -0.0079
vn -0.0232 0.9997 0.0079
vn -0.0862 0.9958 0.0293
vn -0.3057 0.9464 0.1038
vn -0.3057 -0.9464 0.1038
vn -0.0862 -0.9958 0.0293
vn -0.0232 -0.9997 0.0079
vn 0.0232 -0.9997 -0.0079
vn 0.0862 -0.9958 -0.0293
vn 0.3057 -0.9464 -0.1038
vn 0.2896 0.9464 -0.1428
vn 0.0816 0.9958 -0.0403
vn 0.0220 0.9997 -0.0108
vn -0.0220 0.9997 0.0108
vn -0.0816 0.9958 0.0403
vn -0.2896 0.9464 0.1428
vn -0.2896 -0.9464 0.1428
vn -0.0816 -0.9958 0.0403
vn -0.0220 -0.9997 0.0108
vn 0.0220 -0.9997 -0.0108
vn 0.0816 -0.9958 -0.0403
vn 0.2896 -0.9464 -0.1428
vn 0.2685 0.9464 -0.1794
vn 0.0757 0.9958 -0.0506
vn 0.0204 0.9997 -0.0136
vn -0.0204 0.9997 0.0136
vn -0.0757 0.9958 0.0506
vn -0.2685 0.9464 0.1794
vn -0.2685 -0.9464 0.1794
vn -0.0757 -0.9958 0.0506
vn -0.0204 -0.9997 0.0136
vn 0.0204 -0.9997 -0.0136
vn 0.0757 -0.9958 -0.0506
vn 0.2685 -0.9464 -0.1794
vn 0.2427 0.9464 -0.2129
vn 0.0684 0.9958 -0.0600
vn 0.0184 0.9997 -0.0161
vn -0.0184 0.9997 0.0161
vn -0.0684 0.9958 0.0600
vn -0.2427 0.9464 0.2129
vn -0.2427 -0.9464 0.2129
vn -0.0684 -0.9958 0.0600
vn -0.0184 -0.9997 0.0161
vn 0.0184 -0.9997 -0.0161
vn 0.0684 -0.9958 -0.0600
vn 0.2427 -0.9464 -0.2129
vn 0.2129 0.9464 -0.2427
vn 0.0600 0.9958 -0.0684
vn 0.0161 0.9997 -0.0184
vn -0.0161 0.9997 0.0184
vn -0.0600 0.9958 0.0684
vn -0.2129 0.9464 0.2427
vn -0.2129 -0.9464 0.2427
vn -0.0600 -0.9958 0.0684
vn -0.0161 -0.9997 0.0184
vn 0.0161 -0.9997 -0.0184
vn 0.0600 -0.9958 -0.0684
vn 0.2129 -0.9464 -0.2427
vn 0.1794 0.9464 -0.2685
vn 0.0506 0.9958 -0.0757
vn 0.0136 0.9997 -0.0204
vn -0.0136 0.9997 0.0204
vn -0.0506 0.9958 0.0757
vn -0.1794 0.9464 0.2685
vn -0.1794 -0.9464 0.2685
vn -0.0506 -0.9958 0.0757
vn -0.0136 -0.9997 0.0204
vn 0.0136 -0.9997 -0.0204
vn 0.0506 -0.9958 -0.0757
vn 0.1794 -0.9464 -0.2685
vn 0.1428 0.9464 -0.2896
vn 0.0403 0.9958 -0.0816
vn 0.0108 0.9997 -0.0220
vn -0.0108 0.9997 0.0220
vn -0.0403 0.9958 0.0816
vn -0.1428 0.9464 0.2896
vn -0.1428 -0.9464 0.2896
vn -0.0403 -0.9958 0.0816
vn -0.0108 -0.9997 0.0220
vn 0.0108 -0.9997 -0.0220
vn 0.0403 -0.9958 -0.0816
vn 0.1428 -0.9464 -0.2896
vn 0.1038 0.9464 -0.3057
vn 0.0293 0.9958 -0.0862
vn 0.0079 0.9997 -0.0232
vn -0.0079 0.9997 0.0232
vn -0.0293 0.9958 0.0862
vn -0.1038 0.9464 0.3057
vn -0.1038 -0.9464 0.3057
vn -0.0293 -0.9958 0.0862
vn -0.0079 -0.9997 0.0232
vn 0.0079 -0.9997 -0.0232
vn 0.0293 -0.9958 -0.0862
vn 0.1038 -0.9464 -0.3057
vn 0.0630 0.9464 -0.3167
vn 0.0178 0.9958 -0.0893
vn 0.0048 0.9997 -0.0240
vn -0.0048 0.9997 0.0240
vn -0.0178 0.9958 0.0893
vn -0.0630 0.9464 0.3167
vn -0.0630 -0.9464 0.3167
vn -0.0178 -0.9958 0.0893
vn -0.0048 -0.9997 0.0240
vn 0.0048 -0.9997 -0.0240
vn 0.0178 -0.9958 -0.0893
vn 0.0630 -0.9464 -0.3167
vn 0.0211 0.9464 -0.3222
vn 0.0060 0.9958 -0.0908
vn 0.0016 0.9997 -0.0244
vn -0.0016 0.9997 0.0244
vn -0.0060 0.9958 0.0908
vn -0.0211 0.9464 0.3222
vn -0.0211 -0.9464 0.3222
vn -0.0060 -0.9958 0.0908
vn -0.0016 -0.9997 0.0244
vn 0.0016 -0.9997 -0.0244
vn 0.0060 -0.9958 -0.0908
vn 0.0211 -0.9464 -0.3222
vn -0.0211 0.9464 -0.3222
vn -0.0060 0.9958 -0.0908
vn -0.0016 0.9997 -0.0244
vn 0.0016 0.9997 0.0244
vn 0.0060 0.9958 0.0908
vn 0.0211 0.9464 0.3222
vn 0.0211 -0.9464 0.3222
vn 0.0060 -0.9958 0.0908
vn 0.0016 -0.9997 0.0244
vn -0.0016 -0.9997 -0.0244
vn -0.0060 -0.9958 -0.0908
vn -0.0211 -0.9464 -0.3222
vn -0.0630 0.9464 -0.3167
vn -0.0178 0.9958 -0.0893
vn -0.0048 0.9997 -0.0240
vn 0.0048 0.9997 0.0240
vn 0.0178 0.9958 0.0893
vn 0.0630 0.9464 0.3167
vn 0.0630 -0.9464 0.3167
vn 0.0178 -0.9958 0.0893
vn 0.0048 -0.9997 0.0240
vn -0.0048 -0.9997 -0.0240
vn -0.0178 -0.9958 -0.0893
vn -0.0630 -0.9464 -0.3167
vn -0.1038 0.9464 -0.3057
vn -0.0293 0.9958 -0.0862
vn -0.0079 0.9997 -0.0232
vn 0.0079 0.9997 0.0232
vn 0.0293 0.9958 0.0862
vn 0.1038 0.9464 0.3057
vn 0.1038 -0.9464 0.3057
vn 0.0293 -0.9958 0.0862
vn 0.0079 -0.9997 0.0232
vn -0.0079 -0.9997 -0.0232
vn -0.0293 -0.9958 -0.0862
vn -0.1038 -0.9464 -0.3057
vn -0.1428 0.9464 -0.2896
vn -0.0403 0.9958 -0.0816
vn -0.0108 0.9997 -0.0220
vn 0.0108 0.9997 0.0220
vn 0.0403 0.9958 0.0816
vn 0.1428 0.9464 0.2896
vn 0.1428 -0.9464 0.2896
vn 0.0403 -0.9958 0.0816
vn 0.0108 -0.9997 0.0220
vn -0.0108 -0.9997 -0.0220
vn -0.0403 -0.9958 -0.0816
vn -0.1428 -0.9464 -0.2896
vn -0.1794 0.9464 -0.2685
vn -0.0506 0.9958 -0.0757
vn -0.0136 0.9997 -0.0204
vn 0.0136 0.9997 0.0204
vn 0.0506 0.9958 0.0757
vn 0.1794 0.9464 0.2685
vn 0.1794 -0.9464 0.2685
vn 0.0506 -0.9958 0.0757
vn 0.0136 -0.9997 0.0204
vn -0.0136 -0.9997 -0.0204
vn -0.0506 -0.9958 -0.0757
vn -0.1794 -0.9464 -0.2685
vn -0.2129 0.9464 -0.2427
vn -0.0600 0.9958 -0.0684
vn -0.0161 0.9997 -0.0184
vn 0.0161 0.9997 0.0184
vn 0.0600 0.9958 0.0684
vn 0.2129 0.9464 0.2427
vn 0.2129 -0.9464 0.2427
vn 0.0600 -0.9958 0.0684
vn 0.0161 -0.9997 0.0184
vn -0.0161 -0.9997 -0.0184
vn -0.0600 -0.9958 -0.0684
vn -0.2129 -0.9464 -0.2427
vn -0.2427 0.9464 -0.2129
vn -0.0684 0.9958 -0.0600
vn -0.0184 0.9997 -0.0161
vn 0.0184 0.9997 0.0161
vn 0.0684 0.9958 0.0600
vn 0.2427 0.9464 0.2129
vn 0.2427 -0.9464 0.2129
vn 0.0684 -0.9958 0.0600
vn 0.0184 -0.9997 0.0161
vn -0.0184 -0.9997 -0.0161
vn -0.0684 -0.9958 -0.0600
vn -0.2427 -0.9464 -0.2129
vn -0.2685 0.9464 -0.1794
vn -0.0757 0.9958 -0.0506
vn -0.0204 0.9997 -0.0136
vn 0.0204 0.9997 0.0136
vn 0.0757 0.9958 0.0506
vn 0.2685 0.9464 0.1794
vn 0.2685 -0.9464 0.1794
vn 0.0757 -0.9958 0.0506
vn 0.0204 -0.9997 0.0136
vn -0.0204 -0.9997 -0.0136
vn -0.0757 -0.9958 -0.0506
vn -0.2685 -0.9464 -0.1794
vn -0.2896 0.9464 -0.1428
vn -0.0816 0.9958 -0.0403
vn -0.0220 0.9997 -0.0108
vn 0.0220 0.9997 0.0108
vn 0.0816 0.9958 0.0403
vn 0.2896 0.9464 0.1428
vn 0.2896 -0.9464 0.1428
vn 0.0816 -0.9958 0.0403
vn 0.0220 -0.9997 0.0108
vn -0.0220 -0.9997 -0.0108
vn -0.0816 -0.9958 -0.0403
vn -0.2896 -0.9464 -0.1428
vn -0.3057 0.9464 -0.1038
vn -0.0862 0.9958 -0.0293
vn -0.0232 0.9997 -0.0079
vn 0.0232 0.9997 0.0079
vn 0.0862 0.9958 0.0293
vn 0.3057 0.9464 0.1038
vn 0.3057 -0.9464 0.1038
vn 0.0862 -0.9958 0.0293
vn 0.0232 -0.9997 0.0079
vn -0.0232 -0.9997 -0.0079
vn -0.0862 -0.9958 -0.0293
vn -0.3057 -0.9464 -0.1038
vn -0.3167 0.9464 -0.0630
vn -0.0893 0.9958 -0.0178
vn -0.0240 0.9997 -0.0048
vn 0.0240 0.9997 0.0048
vn 0.0893 0.9958 0.0178
vn 0.3167 0.9464 0.0630
vn 0.3167 -0.9464 0.0630
vn 0.0893 -0.9958 0.0178
vn 0.0240 -0.9997 0.0048
vn -0.0240 -0.9997 -0.0048
vn -0.0893 -0.9958 -0.0178
vn -0.3167 -0.9464 -0.0630
vn -0.3222 0.9464 -0.0211
vn -0.0908 0.9958 -0.0060
vn -0.0244 0.9997 -0.0016
vn 0.0244 0.9997 0.0016
vn 0.0908 0.9958 0.0060
vn 0.3222 0.9464 0.0211
vn 0.3222 -0.9464 0.0211
vn 0.0908 -0.9958 0.0060
vn 0.0244 -0.9997 0.0016
vn -0.0244 -0.9997 -0.0016
vn -0.0908 -0.9958 -0.0060
vn -0.3222 -0.9464 -0.0211
vt 0.500000 0.500000
vt 0.520833 0.500000
vt 0.520833 0.583333
vt 0.500000 0.583333
vt 0.520833 0.666667
vt 0.500000 0.666667
vt 0.520833 0.750000
vt 0.500000 0.750000
vt 0.520833 0.833333
vt 0.500000 0.833333
vt 0.520833 0.916667
vt 0.500000 0.916667
vt 0.520833 1.000000
vt 0.500000 1.000000
vt 0.500000 0.000000
vt 0.520833 0.000000
vt 0.520833 0.083333
vt 0.500000 0.083333
vt 0.520833 0.166667
vt 0.500000 0.166667
vt 0.520833 0.250000
vt 0.500000 0.250000
vt 0.520833 0.333333
vt 0.500000 0.333333
vt 0.520833 0.416667
vt 0.500000 0.416667
vt 0.541667 0.500000
vt 0.541667 0.583333
vt 0.541667 0.666667
vt 0.541667 0.750000
vt 0.541667 0.833333
vt 0.541667 0.916667
vt 0.541667 1.000000
vt 0.541667 0.000000
vt 0.541667 0.083333
vt 0.541667 0.166667
vt 0.541667 0.250000
vt 0.541667 0.333333
vt 0.541667 0.416667
vt 0.562500 0.500000
vt 0.562500 0.583333
vt 0.562500 0.666667
vt 0.562500 0.750000
vt 0.562500 0.833333
vt 0.562500 0.916667
vt 0.562500 1.000000
vt 0.562500 0.000000
vt 0.562500 0.083333
vt 0.562500 0.166667
vt 0.562500 0.250000
vt 0.562500 0.333333
vt 0.562500 0.416667
vt 0.583333 0.500000
vt 0.583333 0.583333
vt 0.583333 0.666667
vt 0.583333 0.750000
vt 0.583333 0.833333
vt 0.583333 0.916667
vt 0.583333 1.000000
vt 0.583333 0.000000
vt 0.583333 0.083333
vt 0.583333 0.166667
vt 0.583333 0.250000
vt 0.583333 0.333333
vt 0.583333 0.416667
vt 0.604167 0.500000
vt 0.604167 0.583333
vt 0.604167 0.666667
vt 0.604167 0.750000
vt 0.604167 0.833333
vt 0.604167 0.916667
vt 0.604167 1.000000
vt 0.604167 0.000000
vt 0.604167 0.083333
vt 0.604167 0.166667
vt 0.604167 0.250000
vt 0.604167 0.333333
vt 0.604167 0.416667
vt 0.625000 0.500000
vt 0.625000 0.583333
vt 0.625000 0.666667
vt 0.625000 0.750000
vt 0.625000 0.833333
vt 0.625000 0.916667
vt 0.625000 1.000000
vt 0.625000 0.000000
vt 0.625000 0.083333
vt 0.625000 0.166667
vt 0.625000 0.250000
vt 0.625000 0.333333
vt 0.625000 0.416667
vt 0.645833 0.500000
vt 0.645833 0.583333
vt 0.645833 0.666667
vt 0.645833 0.750000
vt 0.645833 0.833333
vt 0.645833 0.916667
vt 0.645833 1.000000
vt 0.645833 0.000000
vt 0.645833 0.083333
vt 0.645833 0.166667
vt 0.645833 0.250000
vt 0.645833 0.333333
vt 0.645833 0.416667
vt 0.666667 0.500000
vt 0.666667 0.583333
vt 0.666667 0.666667
vt 0.666667 0.750000
vt 0.666667 0.833333
vt 0.666667 0.916667
vt 0.666667 1.000000
vt 0.666667 0.000000
vt 0.666667 0.083333
vt 0.666667 0.166667
vt 0.666667 0.250000
vt 0.666667 0.333333
vt 0.666667 0.416667
vt 0.687500 0.500000
vt 0.687500 0.583333
vt 0.687500 0.666667
vt 0.687500 0.750000
vt 0.687500 0.833333
vt 0.687500 0.916667
vt 0.687500 1.000000
vt 0.687500 0.000000
vt 0.687500 0.083333
vt 0.687500 0.166667
vt 0.687500 0.250000
vt 0.687500 0.333333
vt 0.687500 0.416667
vt 0.708333 0.500000
vt 0.708333 0.583333
vt 0.708333 0.666667
vt 0.708333 0.750000
vt 0.708333 0.833333
vt 0.708333 0.916667
vt 0.708333 1.000000
vt 0.708333 0.000000
vt 0.708333 0.083333
vt 0.708333 0.166667
vt 0.708333 0.250000
vt 0.708333 0.333333
vt 0.708333 0.416667
vt 0.729167 0.500000
vt 0.729167 0.583333
vt 0.729167 0.666667
vt 0.729167 0.750000
vt 0.729167 0.833333
vt 0.729167 0.916667
vt 0.729167 1.000000
vt 0.729167 0.000000
vt 0.729167 0.083333
vt 0.729167 0.166667
vt 0.729167 0.250000
vt 0.729167 0.333333
vt 0.729167 0.416667
vt 0.750000 0.500000
vt 0.750000 0.583333
vt 0.750000 0.666667
vt 0.750000 0.750000
vt 0.750000 0.833333
vt 0.750000 0.916667
vt 0.750000 1.000000
vt 0.750000 0.000000
vt 0.750000 0.083333
vt 0.750000 0.166667
vt 0.750000 0.250000
vt 0.750000 0.333333
vt 0.750000 0.416667
vt 0.770833 0.500000
vt 0.770833 0.583333
vt 0.770833 0.666667
vt 0.770833 0.750000
vt 0.770833 0.833333
vt 0.770833 0.916667
vt 0.770833 1.000000
vt 0.770833 0.000000
vt 0.770833 0.083333
vt 0.770833 0.166667
vt 0.770833 0.250000
vt 0.770833 0.333333
vt 0.770833 0.416667
vt 0.791667 0.500000
vt 0.791667 0.583333
vt 0.791667 0.666667
vt 0.791667 0.750000
vt 0.791667 0.833333
vt 0.791667 0.916667
vt 0.791667 1.000000
vt 0.791667 0.000000
vt 0.791667 0.083333
vt 0.791667 0.166667
vt 0.791667 0.250000
vt 0.791667 0.333333
vt 0.791667 0.416667
vt 0.812500 0.500000
vt 0.812500 0.583333
vt 0.812500 0.666667
vt 0.812500 0.750000
vt 0.812500 0.833333
vt 0.812500 0.916667
vt 0.812500 1.000000
vt 0.812500 0.000000
vt 0.812500 0.083333
vt 0.812500 0.166667
vt 0.812500 0.250000
vt 0.812500 0.333333
vt 0.812500 0.416667
vt 0.833333 0.500000
vt 0.833333 0.583333
vt 0.833333 0.666667
vt 0.833333 0.750000
vt 0.833333 0.833333
vt 0.833333 0.916667
vt 0.833333 1.000000
vt 0.833333 0.000000
vt 0.833333 0.083333
vt 0.833333 0.166667
vt 0.833333 0.250000
vt 0.833333 0.333333
vt 0.833333 0.416667
vt 0.854167 0.500000
vt 0.854167 0.583333
vt 0.854167 0.666667
vt 0.854167 0.750000
vt 0.854167 0.833333
vt 0.854167 0.916667
vt 0.854167 1.000000
vt 0.854167 0.000000
vt 0.854167 0.083333
vt 0.854167 0.166667
vt 0.854167 0.250000
vt 0.854167 0.333333
vt 0.854167 0.416667
vt 0.875000 0.500000
vt 0.875000 0.583333
vt 0.875000 0.666667
vt 0.875000 0.750000
vt 0.875000 0.833333
vt 0.875000 0.916667
vt 0.875000 1.000000
vt 0.875000 0.000000
vt 0.875000 0.083333
vt 0.875000 0.166667
vt 0.875000 0.250000
vt 0.875000 0.333333
vt 0.875000 0.416667
vt 0.895833 0.500000
vt 0.895833 0.583333
vt 0.895833 0.666667
vt 0.895833 0.750000
vt 0.895833 0.833333
vt 0.895833 0.916667
vt 0.895833 1.000000
vt 0.895833 0.000000
vt 0.895833 0.083333
vt 0.895833 0.166667
vt 0.895833 0.250000
vt 0.895833 0.333333
vt 0.895833 0.416667
vt 0.916667 0.500000
vt 0.916667 0.583333
vt 0.916667 0.666667
vt 0.916667 0.750000
vt 0.916667 0.833333
vt 0.916667 0.916667
vt 0.916667 1.000000
vt 0.916667 0.000000
vt 0.916667 0.083333
vt 0.916667 0.166667
vt 0.916667 0.250000
vt 0.916667 0.333333
vt 0.916667 0.416667
vt 0.937500 0.500000
vt 0.937500 0.583333
vt 0.937500 0.666667
vt 0.937500 0.750000
vt 0.937500 0.833333
vt 0.937500 0.916667
vt 0.937500 1.000000
vt 0.937500 0.000000
vt 0.937500 0.083333
vt 0.937500 0.166667
vt 0.937500 0.250000
vt 0.937500 0.333333
vt 0.937500 0.416667
vt 0.958333 0.500000
vt 0.958333 0.583333
vt 0.958333 0.666667
vt 0.958333 0.750000
vt 0.958333 0.833333
vt 0.958333 0.916667
vt 0.958333 1.000000
vt 0.958333 0.000000
vt 0.958333 0.083333
vt 0.958333 0.166667
vt 0.958333 0.250000
vt 0.958333 0.333333
vt 0.958333 0.416667
vt 0.979167 0.500000
vt 0.979167 0.583333
vt 0.979167 0.666667
vt 0.979167 0.750000
vt 0.979167 0.833333
vt 0.979167 0.916667
vt 0.979167 1.000000
vt 0.979167 0.000000
vt 0.979167 0.083333
vt 0.979167 0.166667
vt 0.979167 0.250000
vt 0.979167 0.333333
vt 0.979167 0.416667
vt 1.000000 0.500000
vt 1.000000 0.583333
vt 1.000000 0.666667
vt 1.000000 0.750000
vt 1.000000 0.833333
vt 1.000000 0.916667
vt 1.000000 1.000000
vt 1.000000 0.000000
vt 1.000000 0.083333
vt 1.000000 0.166667
vt 1.000000 0.250000
vt 1.000000 0.333333
vt 1.000000 0.416667
vt 0.000000 0.500000
vt 0.020833 0.500000
vt 0.020833 0.583333
vt 0.000000 0.583333
vt 0.020833 0.666667
vt 0.000000 0.666667
vt 0.020833 0.750000
vt 0.000000 0.750000
vt 0.020833 0.833333
vt 0.000000 0.833333
vt 0.020833 0.916667
vt 0.000000 0.916667
vt 0.020833 1.000000
vt 0.000000 1.000000
vt 0.000000 0.000000
vt 0.020833 0.000000
vt 0.020833 0.083333
vt 0.000000 0.083333
vt 0.020833 0.166667
vt 0.000000 0.166667
vt 0.020833 0.250000
vt 0.000000 0.250000
vt 0.020833 0.333333
vt 0.000000 0.333333
vt 0.020833 0.416667
vt 0.000000 0.416667
vt 0.041667 0.500000
vt 0.041667 0.583333
vt 0.041667 0.666667
vt 0.041667 0.750000
vt 0.041667 0.833333
vt 0.041667 0.916667
vt 0.041667 1.000000
vt 0.041667 0.000000
vt 0.041667 0.083333
vt 0.041667 0.166667
vt 0.041667 0.250000
vt 0.041667 0.333333
vt 0.041667 0.416667
vt 0.062500 0.500000
vt 0.062500 0.583333
vt 0.062500 0.666667
vt 0.062500 0.750000
vt 0.062500 0.833333
vt 0.062500 0.916667
vt 0.062500 1.000000
vt 0.062500 0.000000
vt 0.062500 0.083333
vt 0.062500 0.166667
vt 0.062500 0.250000
vt 0.062500 0.333333
vt 0.062500 0.416667
vt 0.083333 0.500000
vt 0.083333 0.583333
vt 0.083333 0.666667
vt 0.083333 0.750000
vt 0.083333 0.833333
vt 0.083333 0.916667
vt 0.083333 1.000000
vt 0.083333 0.000000
vt 0.083333 0.083333
vt 0.083333 0.166667
vt 0.083333 0.250000
vt 0.083333 0.333333
vt 0.083333 0.416667
vt 0.104167 0.500000
vt 0.104167 0.583333
vt 0.104167 0.666667
vt 0.104167 0.750000
vt 0.104167 0.833333
vt 0.104167 0.916667
vt 0.104167 1.000000
vt 0.104167 0.000000
vt 0.104167 0.083333
vt 0.104167 0.166667
vt 0.104167 0.250000
vt 0.104167 0.333333
vt 0.104167 0.416667
vt 0.125000 0.500000
vt 0.125000 0.583333
vt 0.125000 0.666667
vt 0.125000 0.750000
vt 0.125000 0.833333
vt 0.125000 0.916667
vt 0.125000 1.000000
vt 0.125000 0.000000
vt 0.125000 0.083333
vt 0.125000 0.166667
vt 0.125000 0.250000
vt 0.125000 0.333333
vt 0.125000 0.416667
vt 0.145833 0.500000
vt 0.145833 0.583333
vt 0.145833 0.666667
vt 0.145833 0.750000
vt 0.145833 0.833333
vt 0.145833 0.916667
vt 0.145833 1.000000
vt 0.145833 0.000000
vt 0.145833 0.083333
vt 0.145833 0.166667
vt 0.145833 0.250000
vt 0.145833 0.333333
vt 0.145833 0.416667
vt 0.166667 0.500000
vt 0.166667 0.583333
vt 0.166667 0.666667
vt 0.166667 0.750000
vt 0.166667 0.833333
vt 0.166667 0.916667
vt 0.166667 1.000000
vt 0.166667 0.000000
vt 0.166667 0.083333
vt 0.166667 0.166667
vt 0.166667 0.250000
vt 0.166667 0.333333
vt 0.166667 0.416667
vt 0.187500 0.500000
vt 0.187500 0.583333
vt 0.187500 0.666667
vt 0.187500 0.750000
vt 0.187500 0.833333
vt 0.187500 0.916667
vt 0.187500 1.000000
vt 0.187500 0.000000
vt 0.187500 0.083333
vt 0.187500 0.166667
vt 0.187500 0.250000
vt 0.187500 0.333333
vt 0.187500 0.416667
vt 0.208333 0.500000
vt 0.208333 0.583333
vt 0.208333 0.666667
vt 0.208333 0.750000
vt 0.208333 0.833333
vt 0.208333 0.916667
vt 0.208333 1.000000
vt 0.208333 0.000000
vt 0.208333 0.083333
vt 0.208333 0.166667
vt 0.208333 0.250000
vt 0.208333 0.333333
vt 0.208333 0.416667
vt 0.229167 0.500000
vt 0.229167 0.583333
vt 0.229167 0.666667
vt 0.229167 0.750000
vt 0.229167 0.833333
vt 0.229167 0.916667
vt 0.229167 1.000000
vt 0.229167 0.000000
vt 0.229167 0.083333
vt 0.229167 0.166667
vt 0.229167 0.250000
vt 0.229167 0.333333
vt 0.229167 0.416667
vt 0.250000 0.500000
vt 0.250000 0.583333
vt 0.250000 0.666667
vt 0.250000 0.750000
vt 0.250000 0.833333
vt 0.250000 0.916667
vt 0.250000 1.000000
vt 0.250000 0.000000
vt 0.250000 0.083333
vt 0.250000 0.166667
vt 0.250000 0.250000
vt 0.250000 0.333333
vt 0.250000 0.416667
vt 0.270833 0.500000
vt 0.270833 0.583333
vt 0.270833 0.666667
vt 0.270833 0.750000
vt 0.270833 0.833333
vt 0.270833 0.916667
vt 0.270833 1.000000
vt 0.270833 0.000000
vt 0.270833 0.083333
vt 0.270833 0.166667
vt 0.270833 0.250000
vt 0.270833 0.333333
vt 0.270833 0.416667
vt 0.291667 0.500000
vt 0.291667 0.583333
vt 0.291667 0.666667
vt 0.291667 0.750000
vt 0.291667 0.833333
vt 0.291667 0.916667
vt 0.291667 1.000000
vt 0.291667 0.000000
vt 0.291667 0.083333
vt 0.291667 0.166667
vt 0.291667 0.250000
vt 0.291667 0.333333
vt 0.291667 0.416667
vt 0.312500 0.500000
vt 0.312500 0.583333
vt 0.312500 0.666667
vt 0.312500 0.750000
vt 0.312500 0.833333
vt 0.312500 0.916667
vt 0.312500 1.000000
vt 0.312500 0.000000
vt 0.312500 0.083333
vt 0.312500 0.166667
vt 0.312500 0.250000
vt 0.312500 0.333333
vt 0.312500 0.416667
vt 0.333333 0.500000
vt 0.333333 0.583333
vt 0.333333 0.666667
vt 0.333333 0.750000
vt 0.333333 0.833333
vt 0.333333 0.916667
vt 0.333333 1.000000
vt 0.333333 0.000000
vt 0.333333 0.083333
vt 0.333333 0.166667
vt 0.333333 0.250000
vt 0.333333 0.333333
vt 0.333333 0.416667
vt 0.354167 0.500000
vt 0.354167 0.583333
vt 0.354167 0.666667
vt 0.354167 0.750000
vt 0.354167 0.833333
vt 0.354167 0.916667
vt 0.354167 1.000000
vt 0.354167 0.000000
vt 0.354167 0.083333
vt 0.354167 0.166667
vt 0.354167 0.250000
vt 0.354167 0.333333
vt 0.354167 0.416667
vt 0.375000 0.500000
vt 0.375000 0.583333
vt 0.375000 0.666667
vt 0.375000 0.750000
vt 0.375000 0.833333
vt 0.375000 0.916667
vt 0.375000 1.000000
vt 0.375000 0.000000
vt 0.375000 0.083333
vt 0.375000 0.166667
vt 0.375000 0.250000
vt 0.375000 0.333333
vt 0.375000 0.416667
vt 0.395833 0.500000
vt 0.395833 0.583333
vt 0.395833 0.666667
vt 0.395833 0.750000
vt 0.395833 0.833333
vt 0.395833 0.916667
vt 0.395833 1.000000
vt 0.395833 0.000000
vt 0.395833 0.083333
vt 0.395833 0.166667
vt 0.395833 0.250000
vt 0.395833 0.333333
vt 0.395833 0.416667
vt 0.416667 0.500000
vt 0.416667 0.583333
vt 0.416667 0.666667
vt 0.416667 0.750000
vt 0.416667 0.833333
vt 0.416667 0.916667
vt 0.416667 1.000000
vt 0.416667 0.000000
vt 0.416667 0.083333
vt 0.416667 0.166667
vt 0.416667 0.250000
vt 0.416667 0.333333
vt 0.416667 0.416667
vt 0.437500 0.500000
vt 0.437500 0.583333
vt 0.437500 0.666667
vt 0.437500 0.750000
vt 0.437500 0.833333
vt 0.437500 0.916667
vt 0.437500 1.000000
vt 0.437500 0.000000
vt 0.437500 0.083333
vt 0.437500 0.166667
vt 0.437500 0.250000
vt 0.437500 0.333333
vt 0.437500 0.416667
vt 0.458333 0.500000
vt 0.458333 0.583333
vt 0.458333 0.666667
vt 0.458333 0.750000
vt 0.458333 0.833333
vt 0.458333 0.916667
vt 0.458333 1.000000
vt 0.458333 0.000000
vt 0.458333 0.083333
vt 0.458333 0.166667
vt 0.458333 0.250000
vt 0.458333 0.333333
vt 0.458333 0.416667
vt 0.479167 0.500000
vt 0.479167 0.583333
vt 0.479167 0.666667
vt 0.479167 0.750000
vt 0.479167 0.833333
vt 0.479167 0.916667
vt 0.479167 1.000000
vt 0.479167 0.000000
vt 0.479167 0.083333
vt 0.479167 0.166667
vt 0.479167 0.250000
vt 0.479167 0.333333
vt 0.479167 0.416667
s 0
f 43/64/81 55/65/81 56/66/81 44/67/81
f 44/67/82 56/66/82 57/68/82 45/69/82
f 45/69/83 57/68/83 58/70/83 46/71/83
f 46/71/84 58/70/84 59/72/84 47/73/84
f 47/73/85 59/72/85 60/74/85 48/75/85
f 48/75/86 60/74/86 61/76/86 49/77/86
f 49/78/87 61/79/87 62/80/87 50/81/87
f 50/81/88 62/80/88 63/82/88 51/83/88
f 51/83/89 63/82/89 64/84/89 52/85/89
f 52/85/90 64/84/90 65/86/90 53/87/90
f 53/87/91 65/86/91 66/88/91 54/89/91
f 54/89/92 66/88/92 55/65/92 43/64/92
f 55/65/93 67/90/93 68/91/93 56/66/93
f 56/66/94 68/91/94 69/92/94 57/68/94
f 57/68/95 69/92/95 70/93/95 58/70/95
f 58/70/96 70/93/96 71/94/96 59/72/96
f 59/72/97 71/94/97 72/95/97 60/74/97
f 60/74/98 72/95/98 73/96/98 61/76/98
f 61/79/99 73/97/99 74/98/99 62/80/99
f 62/80/100 74/98/100 75/99/100 63/82/100
f 63/82/101 75/99/101 76/100/101 64/84/101
f 64/84/102 76/100/102 77/101/102 65/86/102
f 65/86/103 77/101/103 78/102/103 66/88/103
f 66/88/104 78/102/104 67/90/104 55/65/104
f 67/90/105 79/103/105 80/104/105 68/91/105
f 68/91/106 80/104/106 81/105/106 69/92/106
f 69/92/107 81/105/107 82/106/107 70/93/107
f 70/93/108 82/106/108 83/107/108 71/94/108
f 71/94/109 83/107/109 84/108/109 72/95/109
f 72/95/110 84/108/110 85/109/110 73/96/110
f 73/97/111 85/110/111 86/111/111 74/98/111
f 74/98/112 86/111/112 87/112/112 75/99/112
f 75/99/113 87/112/113 88/113/113 76/100/113
f 76/100/114 88/113/114 89/114/114 77/101/114
f 77/101/115 89/114/115 90/115/115 78/102/115
f 78/102/116 90/115/116 79/103/116 67/90/116
f 79/103/117 91/116/117 92/117/117 80/104/117
f 80/104/118 92/117/118 93/118/118 81/105/118
f 81/105/119 93/118/119 94/119/119 82/106/119
f 82/106/120 94/119/120 95/120/120 83/107/120
f 83/107/121 95/120/121 96/121/121 84/108/121
f 84/108/122 96/121/122 97/122/122 85/109/122
f 85/110/123 97/123/123 98/124/123 86/111/123
f 86/111/124 98/124/124 99/125/124 87/112/124
f 87/112/125 99/125/125 100/126/125 88/113/125
f 88/113/126 100/126/126 101/127/126 89/114/126
f 89/114/127 101/127/127 102/128/127 90/115/127
f 90/115/128 102/128/128 91/116/128 79/103/128
f 91/116/129 103/129/129 104/130/129 92/117/129
f 92/117/130 104/130/130 105/131/130 93/118/130
f 93/118/131 105/131/131 106/132/131 94/119/131
f 94/119/132 106/132/132 107/133/132 95/120/132
f 95/120/133 107/133/133 108/134/133 96/121/133
f 96/121/134 108/134/134 109/135/134 97/122/134
f 97/123/135 109/136/135 110/137/135 98/124/135
f 98/124/136 110/137/136 111/138/136 99/125/136
f 99/125/137 111/138/137 112/139/137 100/126/137
f 100/126/138 112/139/138 113/140/138 101/127/138
f 101/127/139 113/140/139 114/141/139 102/128/139
f 102/128/140 114/141/140 103/129/140 91/116/140
f 103/129/141 115/142/141 116/143/141 104/130/141
f 104/130/142 116/143/142 117/144/142 105/131/142
f 105/131/143 117/144/143 118/145/143 106/132/143
f 106/132/144 118/145/144 119/146/144 107/133/144
f 107/133/145 119/146/145 120/147/145 108/134/145
f 108/134/146 120/147/146 121/148/146 109/135/146
f 109/136/147 121/149/147 122/150/147 110/137/147
f 110/137/148 122/150/148 123/151/148 111/138/148
f 111/138/149 123/151/149 124/152/149 112/139/149
f 112/139/150 124/152/150 125/153/150 113/140/150
f 113/140/151 125/153/151 126/154/151 114/141/151
f 114/141/152 126/154/152 115/142/152 103/129/152
f 115/142/153 127/155/153 128/156/153 116/143/153
f 116/143/154 128/156/154 129/157/154 117/144/154
f 117/144/155 129/157/155 130/158/155 118/145/155
f 118/145/156 130/158/156 131/159/156 119/146/156
f 119/146/157 131/159/157 132/160/157 120/147/157
f 120/147/158 132/160/158 133/161/158 121/148/158
f 121/149/159 133/162/159 134/163/159 122/150/159
f 122/150/160 134/163/160 135/164/160 123/151/160
f 123/151/161 135/164/161 136/165/161 124/152/161
f 124/152/162 136/165/162 137/166/162 125/153/162
f 125/153/163 137/166/163 138/167/163 126/154/163
f 126/154/164 138/167/164 127/155/164 115/142/164
f 127/155/165 139/168/165 140/169/165 128/156/165
f 128/156/166 140/169/166 141/170/166 129/157/166
f 129/157/167 141/170/167 142/171/167 130/158/167
f 130/158/168 142/171/168 143/172/168 131/159/168
f 131/159/169 143/172/169 144/173/169 132/160/169
f 132/160/170 144/173/170 145/174/170 133/161/170
f 133/162/171 145/175/171 146/176/171 134/163/171
f 134/163/172 146/176/172 147/177/172 135/164/172
f 135/164/173 147/177/173 148/178/173 136/165/173
f 136/165/174 148/178/174 149/179/174 137/166/174
f 137/166/175 149/179/175 150/180/175 138/167/175
f 138/167/176 150/180/176 139/168/176 127/155/176
f 139/168/177 151/181/177 152/182/177 140/169/177
f 140/169/178 152/182/178 153/183/178 141/170/178
f 141/170/179 153/183/179 154/184/179 142/171/179
f 142/171/180 154/184/180 155/185/180 143/172/180
f 143/172/181 155/185/181 156/186/181 144/173/181
f 144/173/182 156/186/182 157/187/182 145/174/182
f 145/175/183 157/188/183 158/189/183 146/176/183
f 146/176/184 158/189/184 159/190/184 147/177/184
f 147/177/185 159/190/185 160/191/185 148/178/185
f 148/178/186 160/191/186 161/192/186 149/179/186
f 149/179/187 161/192/187 162/193/187 150/180/187
f 150/180/188 162/193/188 151/181/188 139/168/188
f 151/181/189 163/194/189 164/195/189 152/182/189
f 152/182/190 164/195/190 165/196/190 153/183/190
f 153/183/191 165/196/191 166/197/191 154/184/191
f 154/184/192 166/197/192 167/198/192 155/185/192
f 155/185/193 167/198/193 168/199/193 156/186/193
f 156/186/194 168/199/194 169/200/194 157/187/194
f 157/188/195 169/201/195 170/202/195 158/189/195
f 158/189/196 170/202/196 171/203/196 159/190/196
f 159/190/197 171/203/197 172/204/197 160/191/197
f 160/191/198 172/204/198 173/205/198 161/192/198
f 161/192/199 173/205/199 174/206/199 162/193/199
f 162/193/200 174/206/200 163/194/200 151/181/200
f 163/194/201 175/207/201 176/208/201 164/195/201
f 164/195/202 176/208/202 177/209/202 165/196/202
f 165/196/203 177/209/203 178/210/203 166/197/203
f 166/197/204 178/210/204 179/211/204 167/198/204
f 167/198/205 179/211/205 180/212/205 168/199/205
f 168/199/206 180/212/206 181/213/206 169/200/206
f 169/201/207 181/214/207 182/215/207 170/202/207
f 170/202/208 182/215/208 183/216/208 171/203/208
f 171/203/209 183/216/209 184/217/209 172/204/209
f 172/204/210 184/217/210 185/218/210 173/205/210
f 173/205/211 185/218/211 186/219/211 174/206/211
f 174/206/212 186/219/212 175/207/212 163/194/212
f 175/207/213 187/220/213 188/221/213 176/208/213
f 176/208/214 188/221/214 189/222/214 177/209/214
f 177/209/215 189/222/215 190/223/215 178/210/215
f 178/210/216 190/223/216 191/224/216 179/211/216
f 179/211/217 191/224/217 192/225/217 180/212/217
f 180/212/218 192/225/218 193/226/218 181/213/218
f 181/214/219 193/227/219 194/228/219 182/215/219
f 182/215/220 194/228/220 195/229/220 183/216/220
f 183/216/221 195/229/221 196/230/221 184/217/221
f 184/217/222 196/230/222 197/231/222 185/218/222
f 185/218/223 197/231/223 198/232/223 186/219/223
f 186/219/224 198/232/224 187/220/224 175/207/224
f 187/220/225 199/233/225 200/234/225 188/221/225
f 188/221/226 200/234/226 201/235/226 189/222/226
f 189/222/227 201/235/227 202/236/227 190/223/227
f 190/223/228 202/236/228 203/237/228 191/224/228
f 191/224/229 203/237/229 204/238/229 192/225/229
f 192/225/230 204/238/230 205/239/230 193/226/230
f 193/227/231 205/240/231 206/241/231 194/228/231
f 194/228/232 206/241/232 207/242/232 195/229/232
f 195/229/233 207/242/233 208/243/233 196/230/233
f 196/230/234 208/243/234 209/244/234 197/231/234
f 197/231/235 209/244/235 210/245/235 198/232/235
f 198/232/236 210/245/236 199/233/236 187/220/236
f 199/233/237 211/246/237 212/247/237 200/234/237
f 200/234/238 212/247/238 213/248/238 201/235/238
f 201/235/239 213/248/239 214/249/239 202/236/239
f 202/236/240 214/249/240 215/250/240 203/237/240
f 203/237/241 215/250/241 216/251/241 204/238/241
f 204/238/242 216/251/242 217/252/242 205/239/242
f 205/240/243 217/253/243 218/254/243 206/241/243
f 206/241/244 218/254/244 219/255/244 207/242/244
f 207/242/245 219/255/245 220/256/245 208/243/245
f 208/243/246 220/256/246 221/257/246 209/244/246
f 209/244/247 221/257/247 222/258/247 210/245/247
f 210/245/248 222/258/248 211/246/248 199/233/248
f 211/246/249 223/259/249 224/260/249 212/247/249
f 212/247/250 224/260/250 225/261/250 213/248/250
f 213/248/251 225/261/251 226/262/251 214/249/251
f 214/249/252 226/262/252 227/263/252 215/250/252
f 215/250/253 227/263/253 228/264/253 216/251/253
f 216/251/254 228/264/254 229/265/254 217/252/254
f 217/253/255 229/266/255 230/267/255 218/254/255
f 218/254/256 230/267/256 231/268/256 219/255/256
f 219/255/257 231/268/257 232/269/257 220/256/257
f 220/256/258 232/269/258 233/270/258 221/257/258
f 221/257/259 233/270/259 234/271/259 222/258/259
f 222/258/260 234/271/260 223/259/260 211/246/260
f 223/259/261 235/272/261 236/273/261 224/260/261
f 224/260/262 236/273/262 237/274/262 225/261/262
f 225/261/263 237/274/263 238/275/263 226/262/263
f 226/262/264 238/275/264 239/276/264 227/263/264
f 227/263/265 239/276/265 240/277/265 228/264/265
f 228/264/266 240/277/266 241/278/266 229/265/266
f 229/266/267 241/279/267 242/280/267 230/267/267
f 230/267/268 242/280/268 243/281/268 231/268/268
f 231/268/269 243/281/269 244/282/269 232/269/269
f 232/269/270 244/282/270 245/283/270 233/270/270
f 233/270/271 245/283/271 246/284/271 234/271/271
f 234/271/272 246/284/272 235/272/272 223/259/272
f 235/272/273 247/285/273 248/286/273 236/273/273
f 236/273/274 248/286/274 249/287/274 237/274/274
f 237/274/275 249/287/275 250/288/275 238/275/275
f 238/275/276 250/288/276 251/289/276 239/276/276
f 239/276/277 251/289/277 252/290/277 240/277/277
f 240/277/278 252/290/278 253/291/278 241/278/278
f 241/279/279 253/292/279 254/293/279 242/280/279
f 242/280/280 254/293/280 255/294/280 243/281/280
f 243/281/281 255/294/281 256/295/281 244/282/281
f 244/282/282 256/295/282 257/296/282 245/283/282
f 245/283/283 257/296/283 258/297/283 246/284/283
f 246/284/284 258/297/284 247/285/284 235/272/284
f 247/285/285 259/298/285 260/299/285 248/286/285
f 248/286/286 260/299/286 261/300/286 249/287/286
f 249/287/287 261/300/287 262/301/287 250/288/287
f 250/288/288 262/301/288 263/302/288 251/289/288
f 251/289/289 263/302/289 264/303/289 252/290/289
f 252/290/290 264/303/290 265/304/290 253/291/290
f 253/292/291 265/305/291 266/306/291 254/293/291
f 254/293/292 266/306/292 267/307/292 255/294/292
f 255/294/293 267/307/293 268/308/293 256/295/293
f 256/295/294 268/308/294 269/309/294 257/296/294
f 257/296/295 269/309/295 270/310/295 258/297/295
f 258/297/296 270/310/296 259/298/296 247/285/296
f 259/298/297 271/311/297 272/312/297 260/299/297
f 260/299/298 272/312/298 273/313/298 261/300/298
f 261/300/299 273/313/299 274/314/299 262/301/299
f 262/301/300 274/314/300 275/315/300 263/302/300
f 263/302/301 275/315/301 276/316/301 264/303/301
f 264/303/302 276/316/302 277/317/302 265/304/302
f 265/305/303 277/318/303 278/319/303 266/306/303
f 266/306/304 278/319/304 279/320/304 267/307/304
f 267/307/305 279/320/305 280/321/305 268/308/305
f 268/308/306 280/321/306 281/322/306 269/309/306
f 269/309/307 281/322/307 282/323/307 270/310/307
f 270/310/308 282/323/308 271/311/308 259/298/308
f 271/311/309 283/324/309 284/325/309 272/312/309
f 272/312/310 284/325/310 285/326/310 273/313/310
f 273/313/311 285/326/311 286/327/311 274/314/311
f 274/314/312 286/327/312 287/328/312 275/315/312
f 275/315/313 287/328/313 288/329/313 276/316/313
f 276/316/314 288/329/314 289/330/314 277/317/314
f 277/318/315 289/331/315 290/332/315 278/319/315
f 278/319/316 290/332/316 291/333/316 279/320/316
f 279/320/317 291/333/317 292/334/317 280/321/317
f 280/321/318 292/334/318 293/335/318 281/322/318
f 281/322/319 293/335/319 294/336/319 282/323/319
f 282/323/320 294/336/320 283/324/320 271/311/320
f 283/324/321 295/337/321 296/338/321 284/325/321
f 284/325/322 296/338/322 297/339/322 285/326/322
f 285/326/323 297/339/323 298/340/323 286/327/323
f 286/327/324 298/340/324 299/341/324 287/328/324
f 287/328/325 299/341/325 300/342/325 288/329/325
f 288/329/326 300/342/326 301/343/326 289/330/326
f 289/331/327 301/344/327 302/345/327 290/332/327
f 290/332/328 302/345/328 303/346/328 291/333/328
f 291/333/329 303/346/329 304/347/329 292/334/329
f 292/334/330 304/347/330 305/348/330 293/335/330
f 293/335/331 305/348/331 306/349/331 294/336/331
f 294/336/332 306/349/332 295/337/332 283/324/332
f 295/337/333 307/350/333 308/351/333 296/338/333
f 296/338/334 308/351/334 309/352/334 297/339/334
f 297/339/335 309/352/335 310/353/335 298/340/335
f 298/340/336 310/353/336 311/354/336 299/341/336
f 299/341/337 311/354/337 312/355/337 300/342/337
f 300/342/338 312/355/338 313/356/338 301/343/338
f 301/344/339 313/357/339 314/358/339 302/345/339
f 302/345/340 314/358/340 315/359/340 303/346/340
f 303/346/341 315/359/341 316/360/341 304/347/341
f 304/347/342 316/360/342 317/361/342 305/348/342
f 305/348/343 317/361/343 318/362/343 306/349/343
f 306/349/344 318/362/344 307/350/344 295/337/344
f 307/350/345 319/363/345 320/364/345 308/351/345
f 308/351/346 320/364/346 321/365/346 309/352/346
f 309/352/347 321/365/347 322/366/347 310/353/347
f 310/353/348 322/366/348 323/367/348 311/354/348
f 311/354/349 323/367/349 324/368/349 312/355/349
f 312/355/350 324/368/350 325/369/350 313/356/350
f 313/357/351 325/370/351 326/371/351 314/358/351
f 314/358/352 326/371/352 327/372/352 315/359/352
f 315/359/353 327/372/353 328/373/353 316/360/353
f 316/360/354 328/373/354 329/374/354 317/361/354
f 317/361/355 329/374/355 330/375/355 318/362/355
f 318/362/356 330/375/356 319/363/356 307/350/356
f 319/363/357 331/376/357 332/377/357 320/364/357
f 320/364/358 332/377/358 333/378/358 321/365/358
f 321/365/359 333/378/359 334/379/359 322/366/359
f 322/366/360 334/379/360 335/380/360 323/367/360
f 323/367/361 335/380/361 336/381/361 324/368/361
f 324/368/362 336/381/362 337/382/362 325/369/362
f 325/370/363 337/383/363 338/384/363 326/371/363
f 326/371/364 338/384/364 339/385/364 327/372/364
f 327/372/365 339/385/365 340/386/365 328/373/365
f 328/373/366 340/386/366 341/387/366 329/374/366
f 329/374/367 341/387/367 342/388/367 330/375/367
f 330/375/368 342/388/368 331/376/368 319/363/368
f 331/389/86 343/390/86 344/391/86 332/392/86
f 332/392/85 344/391/85 345/393/85 333/394/85
f 333/394/84 345/393/84 346/395/84 334/396/84
f 334/396/83 346/395/83 347/397/83 335/398/83
f 335/398/82 347/397/82 348/399/82 336/400/82
f 336/400/81 348/399/81 349/401/81 337/402/81
f 337/403/92 349/404/92 350/405/92 338/406/92
f 338/406/91 350/405/91 351/407/91 339/408/91
f 339/408/90 351/407/90 352/409/90 340/410/90
f 340/410/89 352/409/89 353/411/89 341/412/89
f 341/412/88 353/411/88 354/413/88 342/414/88
f 342/414/87 354/413/87 343/390/87 331/389/87
f 343/390/98 355/415/98 356/416/98 344/391/98
f 344/391/97 356/416/97 357/417/97 345/393/97
f 345/393/96 357/417/96 358/418/96 346/395/96
f 346/395/95 358/418/95 359/419/95 347/397/95
f 347/397/94 359/419/94 360/420/94 348/399/94
f 348/399/93 360/420/93 361/421/93 349/401/93
f 349/404/104 361/422/104 362/423/104 350/405/104
f 350/405/103 362/423/103 363/424/103 351/407/103
f 351/407/102 363/424/102 364/425/102 352/409/102
f 352/409/101 364/425/101 365/426/101 353/411/101
f 353/411/100 365/426/100 366/427/100 354/413/100
f 354/413/99 366/427/99 355/415/99 343/390/99
f 355/415/110 367/428/110 368/429/110 356/416/110
f 356/416/109 368/429/109 369/430/109 357/417/109
f 357/417/108 369/430/108 370/431/108 358/418/108
f 358/418/107 370/431/107 371/432/107 359/419/107
f 359/419/106 371/432/106 372/433/106 360/420/106
f 360/420/105 372/433/105 373/434/105 361/421/105
f 361/422/116 373/435/116 374/436/116 362/423/116
f 362/423/115 374/436/115 375/437/115 363/424/115
f 363/424/114 375/437/114 376/438/114 364/425/114
f 364/425/113 376/438/113 377/439/113 365/426/113
f 365/426/112 377/439/112 378/440/112 366/427/112
f 366/427/111 378/440/111 367/428/111 355/415/111
f 367/428/122 379/441/122 380/442/122 368/429/122
f 368/429/121 380/442/121 381/443/121 369/430/121
f 369/430/120 381/443/120 382/444/120 370/431/120
f 370/431/119 382/444/119 383/445/119 371/432/119
f 371/432/118 383/445/118 384/446/118 372/433/118
f 372/433/117 384/446/117 385/447/117 373/434/117
f 373/435/128 385/448/128 386/449/128 374/436/128
f 374/436/127 386/449/127 387/450/127 375/437/127
f 375/437/126 387/450/126 388/451/126 376/438/126
f 376/438/125 388/451/125 389/452/125 377/439/125
f 377/439/124 389/452/124 390/453/124 378/440/124
f 378/440/123 390/453/123 379/441/123 367/428/123
f 379/441/134 391/454/134 392/455/134 380/442/134
f 380/442/133 392/455/133 393/456/133 381/443/133
f 381/443/132 393/456/132 394/457/132 382/444/132
f 382/444/131 394/457/131 395/458/131 383/445/131
f 383/445/130 395/458/130 396/459/130 384/446/130
f 384/446/129 396/459/129 397/460/129 385/447/129
f 385/448/140 397/461/140 398/462/140 386/449/140
f 386/449/139 398/462/139 399/463/139 387/450/139
f 387/450/138 399/463/138 400/464/138 388/451/138
f 388/451/137 400/464/137 401/465/137 389/452/137
f 389/452/136 401/465/136 402/466/136 390/453/136
f 390/453/135 402/466/135 391/454/135 379/441/135
f 391/454/146 403/467/146 404/468/146 392/455/146
f 392/455/145 404/468/145 405/469/145 393/456/145
f 393/456/144 405/469/144 406/470/144 394/457/144
f 394/457/143 406/470/143 407/471/143 395/458/143
f 395/458/142 407/471/142 408/472/142 396/459/142
f 396/459/141 408/472/141 409/473/141 397/460/141
f 397/461/152 409/474/152 410/475/152 398/462/152
f 398/462/151 410/475/151 411/476/151 399/463/151
f 399/463/150 411/476/150 412/477/150 400/464/150
f 400/464/149 412/477/149 413/478/149 401/465/149
f 401/465/148 413/478/148 414/479/148 402/466/148
f 402/466/147 414/479/147 403/467/147 391/454/147
f 403/467/158 415/480/158 416/481/158 404/468/158
f 404/468/157 416/481/157 417/482/157 405/469/157
f 405/469/156 417/482/156 418/483/156 406/470/156
f 406/470/155 418/483/155 419/484/155 407/471/155
f 407/471/154 419/484/154 420/485/154 408/472/154
f 408/472/153 420/485/153 421/486/153 409/473/153
f 409/474/164 421/487/164 422/488/164 410/475/164
f 410/475/163 422/488/163 423/489/163 411/476/163
f 411/476/162 423/489/162 424/490/162 412/477/162
f 412/477/161 424/490/161 425/491/161 413/478/161
f 413/478/160 425/491/160 426/492/160 414/479/160
f 414/479/159 426/492/159 415/480/159 403/467/159
f 415/480/170 427/493/170 428/494/170 416/481/170
f 416/481/169 428/494/169 429/495/169 417/482/169
f 417/482/168 429/495/168 430/496/168 418/483/168
f 418/483/167 430/496/167 431/497/167 419/484/167
f 419/484/166 431/497/166 432/498/166 420/485/166
f 420/485/165 432/498/165 433/499/165 421/486/165
f 421/487/176 433/500/176 434/501/176 422/488/176
f 422/488/175 434/501/175 435/502/175 423/489/175
f 423/489/174 435/502/174 436/503/174 424/490/174
f 424/490/173 436/503/173 437/504/173 425/491/173
f 425/491/172 437/504/172 438/505/172 426/492/172
f 426/492/171 438/505/171 427/493/171 415/480/171
f 427/493/182 439/506/182 440/507/182 428/494/182
f 428/494/181 440/507/181 441/508/181 429/495/181
f 429/495/180 441/508/180 442/509/180 430/496/180
f 430/496/179 442/509/179 443/510/179 431/497/179
f 431/497/178 443/510/178 444/511/178 432/498/178
f 432/498/177 444/511/177 445/512/177 433/499/177
f 433/500/188 445/513/188 446/514/188 434/501/188
f 434/501/187 446/514/187 447/515/187 435/502/187
f 435/502/186 447/515/186 448/516/186 436/503/186
f 436/503/185 448/516/185 449/517/185 437/504/185
f 437/504/184 449/517/184 450/518/184 438/505/184
f 438/505/183 450/518/183 439/506/183 427/493/183
f 439/506/194 451/519/194 452/520/194 440/507/194
f 440/507/193 452/520/193 453/521/193 441/508/193
f 441/508/192 453/521/192 454/522/192 442/509/192
f 442/509/191 454/522/191 455/523/191 443/510/191
f 443/510/190 455/523/190 456/524/190 444/511/190
f 444/511/189 456/524/189 457/525/189 445/512/189
f 445/513/200 457/526/200 458/527/200 446/514/200
f 446/514/199 458/527/199 459/528/199 447/515/199
f 447/515/198 459/528/198 460/529/198 448/516/198
f 448/516/197 460/529/197 461/530/197 449/517/197
f 449/517/196 461/530/196 462/531/196 450/518/196
f 450/518/195 462/531/195 451/519/195 439/506/195
f 451/519/206 463/532/206 464/533/206 452/520/206
f 452/520/205 464/533/205 465/534/205 453/521/205
f 453/521/204 465/534/204 466/535/204 454/522/204
f 454/522/203 466/535/203 467/536/203 455/523/203
f 455/523/202 467/536/202 468/537/202 456/524/202
f 456/524/201 468/537/201 469/538/201 457/525/201
f 457/526/212 469/539/212 470/540/212 458/527/212
f 458/527/211 470/540/211 471/541/211 459/528/211
f 459/528/210 471/541/210 472/542/210 460/529/210
f 460/529/209 472/542/209 473/543/209 461/530/209
f 461/530/208 473/543/208 474/544/208 462/531/208
f 462/531/207 474/544/207 463/532/207 451/519/207
f 463/532/218 475/545/218 476/546/218 464/533/218
f 464/533/217 476/546/217 477/547/217 465/534/217
f 465/534/216 477/547/216 478/548/216 466/535/216
f 466/535/215 478/548/215 479/549/215 467/536/215
f 467/536/214 479/549/214 480/550/214 468/537/214
f 468/537/213 480/550/213 481/551/213 469/538/213
f 469/539/224 481/552/224 482/553/224 470/540/224
f 470/540/223 482/553/223 483/554/223 471/541/223
f 471/541/222 483/554/222 484/555/222 472/542/222
f 472/542/221 484/555/221 485/556/221 473/543/221
f 473/543/220 485/556/220 486/557/220 474/544/220
f 474/544/219 486/557/219 475/545/219 463/532/219
f 475/545/230 487/558/230 488/559/230 476/546/230
f 476/546/229 488/559/229 489/560/229 477/547/229
f 477/547/228 489/560/228 490/561/228 478/548/228
f 478/548/227 490/561/227 491/562/227 479/549/227
f 479/549/226 491/562/226 492/563/226 480/550/226
f 480/550/225 492/563/225 493/564/225 481/551/225
f 481/552/236 493/565/236 494/566/236 482/553/236
f 482/553/235 494/566/235 495/567/235 483/554/235
f 483/554/234 495/567/234 496/568/234 484/555/234
f 484/555/233 496/568/233 497/569/233 485/556/233
f 485/556/232 497/569/232 498/570/232 486/557/232
f 486/557/231 498/570/231 487/558/231 475/545/231
f 487/558/242 499/571/242 500/572/242 488/559/242
f 488/559/241 500/572/241 501/573/241 489/560/241
f 489/560/240 501/573/240 502/574/240 490/561/240
f 490/561/239 502/574/239 503/575/239 491/562/239
f 491/562/238 503/575/238 504/576/238 492/563/238
f 492/563/237 504/576/237 505/577/237 493/564/237
f 493/565/248 505/578/248 506/579/248 494/566/248
f 494/566/247 506/579/247 507/580/247 495/567/247
f 495/567/246 507/580/246 508/581/246 496/568/246
f 496/568/245 508/581/245 509/582/245 497/569/245
f 497/569/244 509/582/244 510/583/244 498/570/244
f 498/570/243 510/583/243 499/571/243 487/558/243
f 499/571/254 511/584/254 512/585/254 500/572/254
f 500/572/253 512/585/253 513/586/253 501/573/253
f 501/573/252 513/586/252 514/587/252 502/574/252
f 502/574/251 514/587/251 515/588/251 503/575/251
f 503/575/250 515/588/250 516/589/250 504/576/250
f 504/576/249 516/589/249 517/590/249 505/577/249
f 505/578/260 517/591/260 518/592/260 506/579/260
f 506/579/259 518/592/259 519/593/259 507/580/259
f 507/580/258 519/593/258 520/594/258 508/581/258
f 508/581/257 520/594/257 521/595/257 509/582/257
f 509/582/256 521/595/256 522/596/256 510/583/256
f 510/583/255 522/596/255 511/584/255 499/571/255
f 511/584/266 523/597/266 524/598/266 512/585/266
f 512/585/265 524/598/265 525/599/265 513/586/265
f 513/586/264 525/599/264 526/600/264 514/587/264
f 514/587/263 526/600/263 527/601/263 515/588/263
f 515/588/262 527/601/262 528/602/262 516/589/262
f 516/589/261 528/602/261 529/603/261 517/590/261
f 517/591/272 529/604/272 530/605/272 518/592/272
f 518/592/271 530/605/271 531/606/271 519/593/271
f 519/593/270 531/606/270 532/607/270 520/594/270
f 520/594/269 532/607/269 533/608/269 521/595/269
f 521/595/268 533/608/268 534/609/268 522/596/268
f 522/596/267 534/609/267 523/597/267 511/584/267
f 523/597/278 535/610/278 536/611/278 524/598/278
f 524/598/277 536/611/277 537/612/277 525/599/277
f 525/599/276 537/612/276 538/613/276 526/600/276
f 526/600/275 538/613/275 539/614/275 527/601/275
f 527/601/274 539/614/274 540/615/274 528/602/274
f 528/602/273 540/615/273 541/616/273 529/603/273
f 529/604/284 541/617/284 542/618/284 530/605/284
f 530/605/283 542/618/283 543/619/283 531/606/283
f 531/606/282 543/619/282 544/620/282 532/607/282
f 532/607/281 544/620/281 545/621/281 533/608/281
f 533/608/280 545/621/280 546/622/280 534/609/280
f 534/609/279 546/622/279 535/610/279 523/597/279
f 535/610/290 547/623/290 548/624/290 536/611/290
f 536/611/289 548/624/289 549/625/289 537/612/289
f 537/612/288 549/625/288 550/626/288 538/613/288
f 538/613/287 550/626/287 551/627/287 539/614/287
f 539/614/286 551/627/286 552/628/286 540/615/286
f 540/615/285 552/628/285 553/629/285 541/616/285
f 541/617/296 553/630/296 554/631/296 542/618/296
f 542/618/295 554/631/295 555/632/295 543/619/295
f 543/619/294 555/632/294 556/633/294 544/620/294
f 544/620/293 556/633/293 557/634/293 545/621/293
f 545/621/292 557/634/292 558/635/292 546/622/292
f 546/622/291 558/635/291 547/623/291 535/610/291
f 547/623/302 559/636/302 560/637/302 548/624/302
f 548/624/301 560/637/301 561/638/301 549/625/301
f 549/625/300 561/638/300 562/639/300 550/626/300
f 550/626/299 562/639/299 563/640/299 551/627/299
f 551/627/298 563/640/298 564/641/298 552/628/298
f 552/628/297 564/641/297 565/642/297 553/629/297
f 553/630/308 565/643/308 566/644/308 554/631/308
f 554/631/307 566/644/307 567/645/307 555/632/307
f 555/632/306 567/645/306 568/646/306 556/633/306
f 556/633/305 568/646/305 569/647/305 557/634/305
f 557/634/304 569/647/304 570/648/304 558/635/304
f 558/635/303 570/648/303 559/636/303 547/623/303
f 559/636/314 571/649/314 572/650/314 560/637/314
f 560/637/313 572/650/313 573/651/313 561/638/313
f 561/638/312 573/651/312 574/652/312 562/639/312
f 562/639/311 574/652/311 575/653/311 563/640/311
f 563/640/310 575/653/310 576/654/310 564/641/310
f 564/641/309 576/654/309 577/655/309 565/642/309
f 565/643/320 577/656/320 578/657/320 566/644/320
f 566/644/319 578/657/319 579/658/319 567/645/319
f 567/645/318 579/658/318 580/659/318 568/646/318
f 568/646/317 580/659/317 581/660/317 569/647/317
f 569/647/316 581/660/316 582/661/316 570/648/316
f 570/648/315 582/661/315 571/649/315 559/636/315
f 571/649/326 583/662/326 584/663/326 572/650/326
f 572/650/325 584/663/325 585/664/325 573/651/325
f 573/651/324 585/664/324 586/665/324 574/652/324
f 574/652/323 586/665/323 587/666/323 575/653/323
f 575/653/322 587/666/322 588/667/322 576/654/322
f 576/654/321 588/667/321 589/668/321 577/655/321
f 577/656/332 589/669/332 590/670/332 578/657/332
f 578/657/331 590/670/331 591/671/331 579/658/331
f 579/658/330 591/671/330 592/672/330 580/659/330
f 580/659/329 592/672/329 593/673/329 581/660/329
f 581/660/328 593/673/328 594/674/328 582/661/328
f 582/661/327 594/674/327 583/662/327 571/649/327
f 583/662/338 595/675/338 596/676/338 584/663/338
f 584/663/337 596/676/337 597/677/337 585/664/337
f 585/664/336 597/677/336 598/678/336 586/665/336
f 586/665/335 598/678/335 599/679/335 587/666/335
f 587/666/334 599/679/334 600/680/334 588/667/334
f 588/667/333 600/680/333 601/681/333 589/668/333
f 589/669/344 601/682/344 602/683/344 590/670/344
f 590/670/343 602/683/343 603/684/343 591/671/343
f 591/671/342 603/684/342 604/685/342 592/672/342
f 592/672/341 604/685/341 605/686/341 593/673/341
f 593/673/340 605/686/340 606/687/340 594/674/340
f 594/674/339 606/687/339 595/675/339 583/662/339
f 595/675/350 607/688/350 608/689/350 596/676/350
f 596/676/349 608/689/349 609/690/349 597/677/349
f 597/677/348 609/690/348 610/691/348 598/678/348
f 598/678/347 610/691/347 611/692/347 599/679/347
f 599/679/346 611/692/346 612/693/346 600/680/346
f 600/680/345 612/693/345 613/694/345 601/681/345
f 601/682/356 613/695/356 614/696/356 602/683/356
f 602/683/355 614/696/355 615/697/355 603/684/355
f 603/684/354 615/697/354 616/698/354 604/685/354
f 604/685/353 616/698/353 617/699/353 605/686/353
f 605/686/352 617/699/352 618/700/352 606/687/352
f 606/687/351 618/700/351 607/688/351 595/675/351
f 607/688/362 43/64/362 44/67/362 608/689/362
f 608/689/361 44/67/361 45/69/361 609/690/361
f 609/690/360 45/69/360 46/71/360 610/691/360
f 610/691/359 46/71/359 47/73/359 611/692/359
f 611/692/358 47/73/358 48/75/358 612/693/358
f 612/693/357 48/75/357 49/77/357 613/694/357
f 613/695/368 49/78/368 50/81/368 614/696/368
f 614/696/367 50/81/367 51/83/367 615/697/367
f 615/697/366 51/83/366 52/85/366 616/698/366
f 616/698/365 52/85/365 53/87/365 617/699/365
f 617/699/364 53/87/364 54/89/364 618/700/364
f 618/700/363 54/89/363 43/64/363 607/688/363
