# Blender 4.4.3
# www.blender.org
mtllib unseaworthy.mtl
o Cube
v -0.366484 1.000000 -1.365903
v -0.243608 -1.555088 -0.835118
v 2.560618 0.609132 -0.788114
v 1.168273 -1.768229 -0.334506
v -2.473703 0.800518 1.157029
v -0.941189 -1.916041 0.136767
v 0.366484 1.000000 1.365903
v 0.310710 -1.672103 0.562495
v 0.317643 0.995369 1.061474
v 0.809379 4.482806 0.929537
v 0.166304 0.956598 0.938099
v 0.050630 0.778798 0.811635
v 0.688726 1.036295 -0.531543
v 1.898985 4.102577 -0.561978
v 0.644056 0.888284 -0.552503
v 0.226521 0.829043 -0.893070
vn 0.0344 0.9994 -0.0092
vn 0.6669 -0.2401 0.7054
vn -0.1072 -0.3450 0.9325
vn 0.0469 -0.9937 -0.1018
vn 0.2023 -0.2415 -0.9491
vn -0.7534 -0.1778 -0.6331
vn -0.7333 0.1353 0.6663
vn 0.3483 -0.9343 0.0765
vn 0.6647 -0.2616 -0.6998
vn 0.8731 -0.2159 0.4372
vn 0.6089 -0.7738 0.1745
vn -0.8669 0.3263 -0.3769
vt 0.625000 0.500000
vt 0.875000 0.500000
vt 0.875000 0.750000
vt 0.625000 0.750000
vt 0.375000 0.750000
vt 0.625000 1.000000
vt 0.375000 1.000000
vt 0.375000 0.000000
vt 0.625000 0.000000
vt 0.625000 0.250000
vt 0.375000 0.250000
vt 0.125000 0.500000
vt 0.375000 0.500000
vt 0.125000 0.750000
s 0
usemtl Material
f 1/1/1 5/2/1 7/3/1 3/4/1
f 4/5/2 3/4/2 7/6/2 8/7/2
f 8/8/3 7/9/3 5/10/3 6/11/3
f 6/12/4 2/13/4 4/5/4 8/14/4
f 2/13/5 1/1/5 3/4/5 4/5/5
f 6/11/6 5/10/6 1/1/6 2/13/6
f 9/8/7 10/9/7 12/10/7 11/11/7
f 11/11/8 12/10/8 16/1/8 15/13/8
f 15/13/9 16/1/9 14/4/9 13/5/9
f 13/5/10 14/4/10 10/6/10 9/7/10
f 11/12/11 15/13/11 13/5/11 9/14/11
f 16/1/12 12/2/12 10/3/12 14/4/12
